<?xml version="1.0" encoding="UTF-8" standalone="no"?>
<svg width="225px" height="132px" viewBox="0 0 225 132" version="1.1" xmlns="http://www.w3.org/2000/svg" xmlns:xlink="http://www.w3.org/1999/xlink">
    <!-- Generator: Sketch 3.6.1 (26313) - http://www.bohemiancoding.com/sketch -->
    <title>Combined Shape Copy 2</title>
    <desc>Created with Sketch.</desc>
    <defs>
        <filter x="-50%" y="-50%" width="200%" height="200%" filterUnits="objectBoundingBox" id="filter-1">
            <feGaussianBlur stdDeviation="7.03584559" in="SourceGraphic" result="blur"></feGaussianBlur>
        </filter>
    </defs>
    <g id="Page-1" stroke="none" stroke-width="1" fill="none" fill-rule="evenodd" filter="url(#filter-1)">
        <path d="M52.1903437,111.357174 C50.2844593,111.778072 48.3036201,112 46.2708333,112 C31.209568,112 19,99.8171005 19,84.7887324 C19,69.7603643 31.209568,57.5774648 46.2708333,57.5774648 C53.901911,57.5774648 60.8009192,60.7049804 65.7506907,65.7455029 C65.8879829,40.4575036 86.475056,20 111.850694,20 C133.134981,20 151.050356,34.3925214 156.355119,53.9560508 C161.440878,50.5163932 167.577285,48.5070423 174.184028,48.5070423 C191.755504,48.5070423 206,62.720425 206,80.2535211 C206,97.7866173 191.755504,112 174.184028,112 C171.991318,112 169.850417,111.778669 167.782538,111.357174 L119.574719,111.357174 C117.063211,111.779912 114.482711,112 111.850694,112 C109.218678,112 106.638178,111.779912 104.12667,111.357174 L52.1903437,111.357174 Z" id="Combined-Shape-Copy-2" fill="#FFFFFF"></path>
    </g>
</svg>