<?xml version="1.0" encoding="UTF-8" standalone="no"?>
<svg width="91px" height="171px" viewBox="0 0 91 171" version="1.1" xmlns="http://www.w3.org/2000/svg" xmlns:xlink="http://www.w3.org/1999/xlink">
    <!-- Generator: Sketch 3.6.1 (26313) - http://www.bohemiancoding.com/sketch -->
    <title>Group 7</title>
    <desc>Created with Sketch.</desc>
    <defs>
        <linearGradient x1="50%" y1="0%" x2="50%" y2="100%" id="linearGradient-1">
            <stop stop-color="#3FBF77" offset="0%"></stop>
            <stop stop-color="#1E8A42" offset="100%"></stop>
        </linearGradient>
        <linearGradient x1="50%" y1="0%" x2="50%" y2="100%" id="linearGradient-2">
            <stop stop-color="#DD8031" offset="0%"></stop>
            <stop stop-color="#E22F04" offset="100%"></stop>
        </linearGradient>
        <radialGradient cx="50%" cy="0%" fx="50%" fy="0%" r="100%" id="radialGradient-3">
            <stop stop-color="#F4E76E" offset="0%"></stop>
            <stop stop-color="#E5C93B" offset="100%"></stop>
        </radialGradient>
    </defs>
    <g id="Page-1" stroke="none" stroke-width="1" fill="none" fill-rule="evenodd">
        <g id="Group-7" transform="translate(-4.000000, -2.000000)">
            <rect id="Rectangle-47" fill="url(#linearGradient-1)" x="45" y="61" width="7" height="112"></rect>
            <path d="M32.4038461,48.6918648 C21.5036685,31.6408857 4.12489226,18.5879276 27.8551996,10.1756939 C51.5855069,1.76346015 43.2800837,40.4785192 43.2800835,45.6201472 C43.2800833,50.7617752 43.3040238,65.7428438 32.4038461,48.6918648 Z" id="Path-685-Copy-2" fill="url(#linearGradient-2)" transform="translate(30.337425, 32.802850) rotate(-23.000000) translate(-30.337425, -32.802850) "></path>
            <path d="M46.7794419,43.9855563 C35.218895,25.901572 16.7872544,12.057822 41.9552231,3.13594697 C67.1231919,-5.78592803 58.3145984,35.2746188 58.3145981,40.7277438 C58.3145979,46.1808688 58.3399888,62.0695407 46.7794419,43.9855563 Z" id="Path-685" fill="url(#linearGradient-2)" transform="translate(44.587831, 27.133932) rotate(-352.000000) translate(-44.587831, -27.133932) "></path>
            <path d="M42.9635892,88.0238424 C32.0634115,70.9728634 14.6846353,57.9199052 38.4149426,49.5076715 C62.14525,41.0954378 53.8398268,79.8104968 53.8398266,84.9521248 C53.8398263,90.0937528 53.8637668,105.074821 42.9635892,88.0238424 Z" id="Path-685-Copy" fill="url(#linearGradient-2)" transform="translate(40.897168, 72.134827) rotate(-140.000000) translate(-40.897168, -72.134827) "></path>
            <path d="M52.1397016,38.7986687 C55.2134035,18.7135069 55.4170473,-3.21305003 74.5850142,8.07991878 C93.752981,19.3728876 72.2803266,37.7693704 62.2100141,43.1072625 C52.1397016,48.4451546 49.0659997,58.8838306 52.1397016,38.7986687 Z" id="Path-686" fill="url(#linearGradient-2)"></path>
            <path d="M41.1479144,85.5277599 C44.2216163,65.4425981 44.4252601,43.5160412 63.593227,54.80901 C82.7611938,66.1019788 61.2885394,84.4984616 51.2182269,89.8363537 C41.1479144,95.1742458 38.0742125,105.612922 41.1479144,85.5277599 Z" id="Path-686-Copy" fill="url(#linearGradient-2)" transform="translate(55.646620, 74.538205) rotate(-230.000000) translate(-55.646620, -74.538205) "></path>
            <path d="M50.0253906,48.890625 C66.5957031,35.5 86.5683595,11.707031 93.5566406,34.6777344 C100.544922,57.6484377 65.7402344,55.2929685 56.3027344,57.6484375 C46.8652344,60.0039065 33.4550781,62.28125 50.0253906,48.890625 Z" id="Path-687" fill="url(#linearGradient-2)"></path>
            <path d="M50.6441401,63.8570647 C67.2144526,50.4664397 87.187109,26.6734707 94.1753901,49.6441741 C101.163671,72.6148774 66.3589839,70.2594082 56.9214839,72.6148772 C47.4839839,74.9703462 34.0738276,77.2476897 50.6441401,63.8570647 Z" id="Path-687-Copy" fill="url(#linearGradient-2)" transform="translate(68.950146, 57.232120) rotate(51.000000) translate(-68.950146, -57.232120) "></path>
            <path d="M12.0462358,53.2911267 C15.1199377,33.2059649 15.3235815,11.2794079 34.4915483,22.5723768 C53.6595152,33.8653456 32.1868608,52.2618284 22.1165483,57.5997205 C12.0462358,62.9376126 8.97253389,73.3762886 12.0462358,53.2911267 Z" id="Path-686-Copy-2" fill="url(#linearGradient-2)" transform="translate(26.544941, 42.301572) rotate(-106.000000) translate(-26.544941, -42.301572) "></path>
            <path d="M15.0079438,67.3800975 C31.5782563,53.9894725 51.5509127,30.1965035 58.5391938,53.1672069 C65.5274749,76.1379102 30.7227876,73.782441 21.2852876,76.13791 C11.8477876,78.4933789 -1.56236868,80.7707225 15.0079438,67.3800975 Z" id="Path-687-Copy-2" fill="url(#linearGradient-2)" transform="translate(33.313950, 60.755153) rotate(182.000000) translate(-33.313950, -60.755153) "></path>
            <circle id="Oval-31" fill="url(#radialGradient-3)" cx="48" cy="51" r="15"></circle>
        </g>
    </g>
</svg>