<svg width="246" height="238" viewBox="0 0 246 238" xmlns="http://www.w3.org/2000/svg" xmlns:xlink="http://www.w3.org/1999/xlink"><title>BowlofGuacamole</title><defs><filter x="-50%" y="-50%" width="200%" height="200%" filterUnits="objectBoundingBox" id="a"><feOffset dy="7" in="SourceAlpha" result="shadowOffsetOuter1"/><feColorMatrix values="0 0 0 0 0 0 0 0 0 0 0 0 0 0 0 0 0 0 0.25 0" in="shadowOffsetOuter1" result="shadowMatrixOuter1"/><feMerge><feMergeNode in="shadowMatrixOuter1"/><feMergeNode in="SourceGraphic"/></feMerge></filter><path id="b" d="M105.293 107.46V.21h-105v107.25h105z"/></defs><g filter="url(#a)" fill="none" fill-rule="evenodd"><path d="M211.08 94.413c0-9.74-20.767-37.638-96.86-43.9C38.13 44.253.835 83.977.14 95.11c-.697 11.13.766 48.383 15.703 91.074 11.71 33.464 32.484 37.553 44 41.745 5.474 1.992 76.33 4.06 90.08 2.02 27.22-4.04 61.16-35.35 61.16-135.537" fill="#BC1734"/><path d="M15.66 186.184c11.71 33.464 32.483 37.553 44 41.745 5.474 1.992 76.33 4.06 90.08 2.02 27.22-4.04 61.16-35.35 61.16-135.537 0 0-12.992 60.53-23.993 76.532-11.002 16.002-58.158 41.745-91.797 41.745-22.558 0-57.81-7.653-66.168-14.61-8.358-6.958-13.28-11.896-13.28-11.896" fill="#8F1724"/><path d="M14.155 107.712s-15.482-11.21 0-26.518C29.638 65.884 64.02 59.36 85.838 56.842c21.818-2.517 61.037 2.397 61.037 2.397l12.16 8.735s-88.302 0-105.715 9.044c-17.413 9.044-39.165 30.692-39.165 30.692" fill="#BC1734"/><path d="M70.455 53.212c-.348-.116-24.286 5.32-35.756 11.132-5.342 2.706-10.56 4.607-17.105 9.857-3.27 2.625-6.58 6.38-10.99 10.902C5.4 86.336 3.24 89.856 3.24 89.856s6.836-7.564 14.587-13.877c4.24-3.454 9.095-6.12 12.46-7.925 8.56-4.588 34.828-13.336 35.873-13.336 1.044 0 4.295-1.508 4.295-1.508" fill="#BC1734"/><path d="M8.298 96.5s3.928 22.96 45.022 32.7c41.094 9.74 135.69 4.713 148.055-23.655 9.704-22.264-25.29-37.27-29.47-43.495-4.18-6.224-22.837-6.87-25.03-2.81-8.55 15.817-17.223-1.345-23.002-7.785-5.778-6.44-21.1 6.672-24.584 8.17-3.483 1.5-20.45-7.51-29.95-2.783-3.978 1.98-19.277-7.03-19.39.31-.113 7.343-9.256 13.982-11.953 12.91-2.698-1.073-6.965 7.71-13.93 12.9S9.247 88.152 8.297 96.5" fill="#92A951"/><path d="M8.44 96.964s3.927 22.96 45.02 32.7c41.095 9.74 135.69 4.713 148.055-23.655 9.705-22.265-25.29-37.27-29.47-43.496 0 0 18.2 24.177 14.862 27.342-3.34 3.165-9.25 15.24-15.002 8.507-5.75-6.733-25.03 8.88-25.03 8.88l-11.374 8.042-23.534-4.207s-9.46 10.47-15.595 11.165c-6.135.695-29.817-.6-35.388-3.43-5.573-2.832-16.927-15.195-24.135-11.1-7.208 4.093-4.38-13.3-10.32-13.3-5.943 0-11.907 5.35-14.998 3.95l-3.09-1.4z" fill="#768C31"/><path d="M102.79 140.318h-.037c-.198-.012-11.33.193-14.072 0-11.672-.818-29.963-2.34-37.148-3.96-6.43-1.45-34.637-10.034-44.258-29.455-4.748-9.586-5.047-14.13-5.08-13.81-.285 2.717.425 6.555 2.205 11.027 2.52 6.328 18.274 25.132 28.72 29.628 10.45 4.497 40.73 10.098 44.454 10.063 1.464-.013 19.214 1.538 39.395.182 24.31-1.635 52.09-6.998 60.17-10.244 12.18-4.893 13.412-10.477 13.468-12.293.01-.302-.28-.52-.57-.426-3.515 1.154-23.416 7.726-36.506 12.718-14.208 5.42-49.795 6.542-50.74 6.57" fill="#E12B4B"/><path d="M193.588 74.2s10.835 9.51 12.925 14.613c2.09 5.102 1.857 11.828 0 14.61-1.858 2.784-5.722 7.655-5.722 7.655s5.955-8.118 5.026-13.684c-.93-5.566-5.517-12.213-6.5-15.476-.984-3.263-5.728-7.717-5.728-7.717" fill="#BC1734"/><path d="M5.212 121.282s7.662 36.18 9.055 43.835c1.393 7.653 7.74 18.4 9.365 21.415 1.625 3.015 25.462 15.46 25.462 15.46s-21.36-16.698-27.86-40.354c-6.502-23.657-7.74-40.974-8.437-41.902-.697-.927-7.413-8.545-8.514-12.024-1.1-3.48.93 13.57.93 13.57" fill="#E12B4B"/><path d="M114.242 56.47c-1.72-.323-7.988 4.063-12.166 6.044-4.18 1.982-12.538.106-16.02 0-3.483-.106-15.6.905-15.6.905s-6.688 3.097-10.868 0c-4.178-3.1-10.494 1.376-10.494 1.376V74.2l-12.247 7.72-6.512 3.448s7.485 1.392 12.45 0c4.963-1.39 10.535-8.35 10.535-8.35s-2.786-6.797 3.482-5.485C63.072 72.845 72.29 74.2 72.29 74.2l14.462-2.667 13.93 2.668 11.284-5.06s12.113-14.667 11.907-12.09c-.206 2.575-9.63-.58-9.63-.58M157.523 62.514c-2.513-.106-14.525 7.478-16.53 11.687-2.002 4.21-16.908 1.428-17.117 4.21-.21 2.784-.003 13.308-.003 13.308s4.318-3.026 9.02-5.73c4.704-2.707-.343-4.736 8.1-4.07 8.445.667 12.54-10.385 12.54-10.385l3.99-9.02z" fill="#C4D76E"/><g transform="translate(140.7 .254)"><mask id="c" fill="#fff"><use xlink:href="#b"/></mask><path d="M.293 89.602S10.783.93 19.163.232c8.38-.694 46.456 14.612 60.502 28.527C93.71 42.673 105.293 76.86 105.293 76.86l-74.09 30.597S27.544 93.394 21.97 89.6c-5.572-3.792-8.845 2.645-13.13 1.862C4.558 90.68.294 89.602.294 89.602" fill="#EAB864" mask="url(#c)"/></g><path d="M140.985 89.906s4.265 1.078 8.548 1.86c4.284.784 7.557-5.653 13.13-1.86 5.572 3.792 9.233 17.856 9.233 17.856l74.09-30.597s-2.145-6.33-5.708-14.65c0 0-5.17 5.39-11.438 11.686-6.27 6.298-28.05 15.656-28.05 15.656s-19.632.314-23.65 0c-4.02-.313-15.905-4.95-17.276-4.718-1.37.23-10.676-1.316-12.99.85-2.312 2.163-5.89 3.918-5.89 3.918" fill="#D4A659"/><path d="M140.985 89.906s6.216 4.67 12.547-.05c6.332-4.718 8.623-4.275 12.37-3.08 3.744 1.195 8.988 11.97 11.237 13.282 2.248 1.312 9.767 7.704 9.767 7.704s-8.554 1.195-15.002 3.315c-6.447 2.12-15-10.612-15-10.612s-7.83-6.64-15.92-10.56" fill="#92A951"/><path d="M162.662 88.05s-1.52 1.505-3.765 3.3c-4.202 3.36-10.946 7.732-15.03 5.158-6.27-3.95-10.972-3.84-10.972-3.84s2.218 5.148 8.1 8.934c5.88 3.787 21.667-13.552 21.667-13.552" fill="#C4D76E"/><path d="M97.92 80.518s-8.986-.89-9.436-6.76c-.45-5.873 6.584-5.96 6.205-10.033-.38-4.074-5.35-.447-6.226-3.84-.878-3.394-2.374-4.3-2.3-6.11.074-1.814-2.994 0-2.994 0v8.624s.22 5.668-.606 5.726c-.825.057-7.56-8.464-8.008-11.635-.45-3.17-1.797-13.588-1.797-13.588s-3.596 2.718-3.596 4.53c0 1.81-4.972-1.812-4.972-1.812s-4.128-6.342-4.07.453l.057 6.795-3.89 1.358 7.902 5.412 13.78 8.836-13.78.896-4.07 2.404v5.617H74.556s-9.885 4.82-8.088 5.777c1.798.957 8.987-.552 8.987-.552l2.516-2.097 8.194-3.127s6.193 4.82 8.525 5.777c2.33.957 3.23-2.65 3.23-2.65" fill="#346029"/><path d="M93.974 81.07s8.75-5.828 8.156-11.515c-.593-5.688-5.415-3.058-5.76-7.042-.344-3.984 3.058-2.184 3.328-5.816.27-3.63 1.592-5.302 1.198-6.94-.393-1.635 2.968-1.666 2.968-1.666l1.526 7.988s.784 5.372 1.612 4.966c.83-.407 5.996-12.047 5.88-15.233-.115-3.185-.622-13.583-.622-13.583s4.044.515 4.364 2.193c.32 1.678 4.608-4.447 4.608-4.447s2.97-8.17 4.115-1.847l1.145 6.324 4.093-.906-6.874 9.41-12.094 15.854 13.816-6.842 4.46-.04.993 5.2-8.963 5.036-5.344 3.002s10.65-1.04 9.038.845-9.005 4.49-9.005 4.49l-2.864-.538-8.673 1.666s-5.286 7.91-7.428 10.095c-2.142 2.185-3.67-.653-3.67-.653" fill="#346029"/><path d="M128.268 53.25c-.464-.154-1.703.464-3.096.31-1.393-.155-8.203 3.71-8.977 4.174-.775.464-4.18 2.784-4.18 2.784s4.8-.155 6.192-.774c1.393-.618 3.715-1.7 4.798-2.783 1.084-1.08 1.548-1.7 2.477-1.7.928 0 2.786-2.01 2.786-2.01M102.11 51.086s-.465 2.937-.775 4.793c-.31 1.854-1.393 4.483-1.858 4.792-.464.31-1.547 1.546-.62 2.01.93.464 1.704.928 2.013.154.31-.772 1.24-1.39 1.394-2.783.155-1.39.31-3.092.31-3.092l-.465-5.874zM62.638 47.375c0 .464-.464 4.948-1.238 6.184-.774 1.236 1.857 2.937 2.94 3.865 1.084.928 5.883 5.103 5.883 5.103s2.786 1.39 1.238-1.856c-1.547-3.247-2.475-5.566-3.095-6.65-.62-1.08-2.167-2.163-2.476-3.4-.31-1.237-3.252-3.247-3.252-3.247M77.498 70.722c-1.548-.31-9.906.31-11.145.62-1.238.308-2.476 2.627-1.857 2.473.62-.155 6.346-.62 6.965-.928.62-.31 6.038-2.165 6.038-2.165M85.082 57.58c-.154.618-.464 6.03-.62 8.04-.154 2.01-.773 5.102.466 4.174 1.238-.927 2.476-2.937 2.63-3.71.156-.773-.308-3.248-.618-4.64-.31-1.39-1.858-3.864-1.858-3.864" fill="#5CAB48"/><path d="M107.14 90.204c-1.394-.696-6.037-3.48-9.056-1.39-3.018 2.086-10.448 6.26-10.448 6.26s-9.52-4.638-10.912-4.87c-1.393-.232-4.644 5.798-4.644 5.798s3.947 0 6.733.696c2.787.696 5.34 3.48 7.198 4.175 1.858.696 5.806 1.39 7.43-1.624 1.626-3.016.697-3.943 3.716-5.103 3.018-1.16 3.947-.928 5.804-.696 1.858.233 3.483 1.625 4.644.93 1.16-.697-.465-4.176-.465-4.176" fill="#768C31"/></g></svg>