<svg width="322" height="81" viewBox="0 0 322 81" xmlns="http://www.w3.org/2000/svg" xmlns:xlink="http://www.w3.org/1999/xlink"><title>Logo</title><defs><filter x="-50%" y="-50%" width="200%" height="200%" filterUnits="objectBoundingBox" id="a"><feOffset dx="3" dy="5" in="SourceAlpha" result="shadowOffsetOuter1"/><feColorMatrix values="0 0 0 0 0 0 0 0 0 0 0 0 0 0 0 0 0 0 0.25 0" in="shadowOffsetOuter1" result="shadowMatrixOuter1"/><feMerge><feMergeNode in="shadowMatrixOuter1"/><feMergeNode in="SourceGraphic"/></feMerge></filter><path id="b" d="M28.84.267H.24v28.47h28.6V.266z"/><path id="d" d="M29.108 28.9V.078H.093V28.9h29.015z"/></defs><g filter="url(#a)" fill="none" fill-rule="evenodd"><path d="M21.96 45.484c-3.58-.436-6.645.28-9.2 2.144-2.555 1.866-4.082 4.21-4.584 7.03-.502 2.822.246 5.6 2.243 8.333 1.996 2.735 4.375 4.31 7.137 4.73 2.76.418 5.303-.22 7.622-1.914 2.817-2.057 4.267-4.68 4.35-7.874l-4.146-5.675 6.09-4.446 10.74 14.705-6.09 4.446-1.604-2.194c-1.14 3.078-3.12 5.643-5.937 7.7-3.757 2.743-8.032 3.76-12.83 3.047-4.796-.71-8.787-3.247-11.974-7.61C.592 63.54-.58 58.847.264 53.827c.844-5.018 3.344-9.045 7.5-12.08 4.16-3.035 8.754-4.294 13.79-3.78l.406 7.516zM54.463 41.332L47.52 28.178l6.85-3.615 12.883 24.403L60.4 52.58l-1.698-3.22c-.433 3.284-1.988 5.63-4.665 7.043-2.676 1.413-5.365 1.758-8.066 1.038-2.7-.72-4.92-2.728-6.66-6.024L31.504 36.63l6.85-3.616 7.016 13.29c1.98 3.75 4.345 4.898 7.098 3.446 1.362-.718 2.28-1.832 2.76-3.342s.226-3.2-.765-5.076M71.8 32.32c.78 2.118 2.044 3.612 3.786 4.48 1.742.872 3.447 1 5.117.384 1.667-.616 2.834-1.8 3.498-3.56.666-1.756.61-3.685-.165-5.786-.775-2.102-2-3.645-3.676-4.63-1.677-.986-3.365-1.166-5.066-.54-1.7.628-2.903 1.864-3.608 3.71-.705 1.844-.666 3.825.115 5.942m-.03 10.89c-3.38-1.56-5.815-4.352-7.3-8.38-1.484-4.025-1.404-7.708.244-11.05 1.647-3.34 4.14-5.625 7.477-6.855 2.6-.958 5.182-.926 7.746.097l-.798-2.166 7.267-2.68 9.55 25.89-7.268 2.68-.78-2.118c-1.44 2.425-3.475 4.123-6.106 5.093-3.305 1.22-6.648 1.05-10.03-.51M111.263 27.807c2.498-.58 4.457-2.352 5.874-5.315l5.61 3.962c-2.63 4.402-5.958 7.072-9.988 8.01-4.032.936-7.734.455-11.11-1.446-3.373-1.9-5.538-4.907-6.495-9.02-.958-4.114-.33-7.788 1.886-11.023 2.215-3.236 5.254-5.304 9.118-6.202 1.932-.45 3.982-.505 6.15-.167 2.168.34 4.184 1.117 6.047 2.333l-2.71 6c-1.108-.83-2.352-1.383-3.732-1.66-1.38-.275-2.69-.27-3.92.018-1.967.456-3.507 1.49-4.625 3.102-1.117 1.612-1.41 3.558-.88 5.84.53 2.28 1.65 3.89 3.362 4.825 1.71.937 3.515 1.184 5.413.742M122.364 19.756l-.894-6.762 18.105-2.394.894 6.762" fill="#FFF"/><g transform="translate(144.576 .2)"><mask id="c" fill="#fff"><use xlink:href="#b"/></mask><path d="M7.988 14.65c.03 2.257.72 4.087 2.072 5.488 1.352 1.4 2.918 2.09 4.696 2.067 1.778-.023 3.274-.75 4.486-2.186 1.213-1.436 1.805-3.273 1.776-5.513-.03-2.238-.67-4.102-1.92-5.592-1.25-1.487-2.782-2.22-4.594-2.197-1.813.024-3.36.787-4.64 2.29-1.28 1.505-1.905 3.386-1.876 5.642M4.325 24.905C1.657 22.307.295 18.862.24 14.57.185 10.28 1.49 6.836 4.16 4.237 6.826 1.636 9.94.314 13.496.268c2.77-.036 5.193.856 7.27 2.676l-.03-2.308 7.744-.1.36 27.59-7.747.1-.03-2.255c-2.165 1.807-4.65 2.728-7.453 2.765-3.523.045-6.618-1.23-9.285-3.83" fill="#FFF" mask="url(#c)"/></g><path fill="#FFF" d="M178.583 16.814l.705-6.785 18.165 1.885-.705 6.786M227.405 22.316l-3.74 14.396-7.497-1.946 3.79-14.596c.55-2.117.632-3.757.244-4.917-.388-1.16-1.3-1.927-2.74-2.3-1.442-.375-2.856-.167-4.244.62-1.388.788-2.353 2.224-2.894 4.308l-3.74 14.398-7.448-1.934 6.937-26.707 7.448 1.933-.786 3.03c2.654-1.785 5.305-2.334 7.954-1.646 1.688.438 3.09 1.332 4.206 2.68 1.116 1.35 1.837 2.828 2.162 4.43 1.447-1.354 3.157-2.253 5.126-2.695 1.97-.444 3.832-.438 5.587.018 3.144.816 5.433 2.41 6.868 4.777 1.433 2.37 1.69 5.323.77 8.864l-4.215 16.232-7.497-1.946 3.79-14.595c1.066-4.103.092-6.546-2.92-7.328-1.49-.386-2.92-.183-4.292.608-1.37.792-2.328 2.23-2.87 4.316M255.237 32.945c-.922 2.06-1.087 4-.495 5.818.59 1.82 1.8 3.137 3.626 3.953 1.826.817 3.614.84 5.365.067 1.75-.77 3.086-2.187 4.008-4.248.922-2.06 1.09-4.007.506-5.84-.584-1.836-1.79-3.16-3.616-3.977-1.826-.817-3.618-.832-5.375-.044-1.757.787-3.097 2.21-4.018 4.27m19.575 8.753c-1.633 3.652-4.273 6.162-7.92 7.527-3.645 1.368-7.38 1.195-11.205-.515s-6.443-4.38-7.855-8.007c-1.412-3.628-1.3-7.268.333-10.92 1.634-3.652 4.277-6.17 7.93-7.55 3.653-1.382 7.39-1.22 11.216.492 3.825 1.71 6.44 4.386 7.845 8.03 1.405 3.643 1.29 7.29-.343 10.942M295.63 28.49L282.536 51.14c-.53.918-.71 1.772-.534 2.564.174.792.587 1.376 1.24 1.752 1.242.72 2.618.764 4.128.135l-.207 6.1c-3.168.696-5.9.38-8.195-.945-2.295-1.326-3.798-3.2-4.51-5.626-.71-2.426-.313-4.94 1.193-7.546l13.272-22.958 6.707 3.875z"/><g transform="translate(289.618 45.892)"><mask id="e" fill="#fff"><use xlink:href="#d"/></mask><path d="M19.344 8.48c-1.53-1.096-3.244-1.565-5.142-1.41-1.9.156-3.485 1.126-4.758 2.904-.24.334-.405.594-.496.78l12.6 3.02c.81-1.9.077-3.664-2.204-5.295m-9.222 12.447c1.195.855 2.57 1.388 4.125 1.595 1.555.208 3.024.05 4.408-.474l.812 6.446c-5.034.982-9.352.185-12.954-2.39-3.602-2.578-5.69-5.73-6.258-9.458-.57-3.73.364-7.297 2.802-10.703C5.493 2.536 8.644.616 12.507.183 16.37-.248 19.83.63 22.89 2.818c3.06 2.19 5.002 4.88 5.828 8.077.824 3.197.345 6.217-1.438 9.062l-.567.792L7.358 16.24c.09 1.87 1.01 3.434 2.764 4.687" fill="#FFF" mask="url(#e)"/></g></g></svg>