<?xml version="1.0" encoding="UTF-8" standalone="no"?>
<svg width="334px" height="82px" viewBox="0 0 334 82" version="1.1" xmlns="http://www.w3.org/2000/svg" xmlns:xlink="http://www.w3.org/1999/xlink">
    <!-- Generator: Sketch 3.6.1 (26313) - http://www.bohemiancoding.com/sketch -->
    <title>Combined Shape</title>
    <desc>Created with Sketch.</desc>
    <defs></defs>
    <g id="Page-1" stroke="none" stroke-width="1" fill="none" fill-rule="evenodd">
        <path d="M310.900583,0.777872301 C311.865023,1.52902505 312.608995,3.11273563 313.055335,5.74023438 C315.931829,22.6735092 324.25388,31.0084813 327.976013,33.9734148 C329.813409,34.536818 330.86637,35.558862 330.988105,37.1767681 C333.309985,37.474598 333.370591,38.5328123 333.902182,42.2927354 C334.641989,47.5253578 326.195035,53.931276 322.912162,53.9312766 C321.077085,53.9312769 317.334279,54.189556 313.080162,55.0675834 C309.064513,56.9139781 304.43562,58.6737368 299.257018,60.3318528 C293.159217,63.7451227 287.433688,67.6477947 279.894522,69.3407977 C270.941176,71.3513707 262.889782,74.7128 248.56446,74.7127994 C234.239137,74.7127988 228.348305,74.7127965 218.292298,79.3182657 C208.236292,83.9237348 203.499993,80.8104871 189.836413,80.8104876 C176.172833,80.810488 166.339409,79.3968061 159.176751,79.3968037 C152.014093,79.3968013 144.851418,77.6972402 137.974634,77.6972415 C131.097851,77.6972428 131.006737,77.6972402 125.23263,74.7127978 C125.194155,74.6929111 125.155565,74.6732232 125.116861,74.6537323 C118.837954,74.2503742 112.70979,73.7605904 106.756688,73.1901246 C106.199368,73.2090801 105.657081,73.2205758 105.133187,73.2205759 C99.1643002,73.2205771 89.601517,73.5190176 80.2460678,73.5190203 C70.8906186,73.519023 70.1774981,73.8174642 57.0459446,69.340799 C43.9143912,64.8641339 47.9889414,68.0433515 43.5122777,65.6557964 C40.760505,64.1881836 38.6075802,61.813692 36.3384475,60.2017586 C34.5984499,59.6397353 32.9213956,59.0661535 31.3097353,58.4815919 C27.1143396,58.5006607 23.4884914,58.7790101 20.7943778,58.7790097 C18.004708,58.7790093 7.24814459,55.7945665 2.85001711,52.0058932 C-1.54811038,48.2172199 1.19757772,39.9518822 1.19757772,39.9518822 C1.19757772,39.9518822 2.86738273,38.2491472 5.13266384,36.7776992 C5.39913119,36.0793785 6.06165607,35.4779199 7.07162742,34.9749753 C9.63451072,32.7452314 17.1512615,24.9445722 22.9446654,6.15660326 C23.2935043,5.02532088 23.7069516,4.07669075 24.1778106,3.29548664 C24.0597347,3.86014422 24,4.42842503 24,5 C24,23.7776815 88.470996,39 168,39 C247.529004,39 312,23.7776815 312,5 C312,3.57029693 311.626258,2.16120452 310.900583,0.777872301 Z" id="Combined-Shape" fill="#372A15"></path>
    </g>
</svg>