<?xml version="1.0" encoding="UTF-8" standalone="no"?>
<svg width="336px" height="112px" viewBox="0 0 336 112" version="1.1" xmlns="http://www.w3.org/2000/svg" xmlns:xlink="http://www.w3.org/1999/xlink">
    <!-- Generator: Sketch 3.6.1 (26313) - http://www.bohemiancoding.com/sketch -->
    <title>Group 5</title>
    <desc>Created with Sketch.</desc>
    <defs>
        <filter x="-50%" y="-50%" width="200%" height="200%" filterUnits="objectBoundingBox" id="filter-1">
            <feOffset dx="2" dy="1" in="SourceAlpha" result="shadowOffsetOuter1"></feOffset>
            <feGaussianBlur stdDeviation="0" in="shadowOffsetOuter1" result="shadowBlurOuter1"></feGaussianBlur>
            <feColorMatrix values="0 0 0 0 0   0 0 0 0 0   0 0 0 0 0  0 0 0 0.35 0" in="shadowBlurOuter1" type="matrix" result="shadowMatrixOuter1"></feColorMatrix>
            <feMerge>
                <feMergeNode in="shadowMatrixOuter1"></feMergeNode>
                <feMergeNode in="SourceGraphic"></feMergeNode>
            </feMerge>
        </filter>
        <filter x="-50%" y="-50%" width="200%" height="200%" filterUnits="objectBoundingBox" id="filter-2">
            <feOffset dx="14" dy="13" in="SourceAlpha" result="shadowOffsetInner1"></feOffset>
            <feGaussianBlur stdDeviation="0" in="shadowOffsetInner1" result="shadowBlurInner1"></feGaussianBlur>
            <feComposite in="shadowBlurInner1" in2="SourceAlpha" operator="arithmetic" k2="-1" k3="1" result="shadowInnerInner1"></feComposite>
            <feColorMatrix values="0 0 0 0 0   0 0 0 0 0   0 0 0 0 0  0 0 0 0.14 0" in="shadowInnerInner1" type="matrix" result="shadowMatrixInner1"></feColorMatrix>
            <feMerge>
                <feMergeNode in="SourceGraphic"></feMergeNode>
                <feMergeNode in="shadowMatrixInner1"></feMergeNode>
            </feMerge>
        </filter>
    </defs>
    <g id="Page-1" stroke="none" stroke-width="1" fill="none" fill-rule="evenodd" filter="url(#filter-1)">
        <g id="06---Game-1-Copy-7" transform="translate(-21.000000, -508.000000)">
            <g id="Group-5" transform="translate(21.000000, 508.000000)">
                <path d="M313.055335,34.7402344 C316.805724,56.8179299 329.813061,64.2792969 329.81306,64.2792985 C329.813058,64.2793001 284.540812,64.2792984 284.540812,64.2792984 C284.540812,64.2792984 309.304945,12.6625388 313.055335,34.7402344 Z" id="Path-442" fill="#372A15"></path>
                <path d="M215.118219,66.1381582 C271.507584,61.529971 312,48.8814972 312,34 C312,15.2223185 247.529004,0 168,0 C88.470996,0 24,15.2223185 24,34 C24,48.190384 60.8187245,60.3503367 113.13075,65.4446887 C88.7936848,65.2792074 71.9650224,65.16478 71.9650218,65.16478 C71.9650195,65.16478 15.3532655,63.6725581 10.8640339,63.6725581 C6.37480235,63.6725582 1.19757772,68.9518822 1.19757772,68.9518822 C1.19757772,68.9518822 -1.54811038,77.2172199 2.85001711,81.0058932 C7.24814459,84.7945665 18.004708,87.7790093 20.7943778,87.7790097 C23.5840476,87.7790102 27.3727184,87.4805653 31.7582816,87.4805654 C36.1438448,87.4805654 39.0356139,92.2682413 43.5122777,94.6557964 C47.9889414,97.0433515 43.9143912,93.8641339 57.0459446,98.340799 C70.1774981,102.817464 70.8906186,102.519023 80.2460678,102.51902 C89.601517,102.519018 99.1643002,102.220577 105.133187,102.220576 C111.102074,102.220575 119.458524,100.728355 125.23263,103.712798 C131.006737,106.69724 131.097851,106.697243 137.974634,106.697242 C144.851418,106.69724 152.014093,108.396801 159.176751,108.396804 C166.339409,108.396806 176.172833,109.810488 189.836413,109.810488 C203.499993,109.810487 208.236292,112.923735 218.292298,108.318266 C228.348305,103.712797 234.239137,103.712799 248.56446,103.712799 C262.889782,103.7128 270.941176,100.351371 279.894522,98.3407977 C288.847869,96.3302248 295.243369,91.2032645 302.742179,87.4805644 C310.240988,83.7578643 319.629289,82.9312772 322.912162,82.9312766 C326.195035,82.931276 334.641989,76.5253578 333.902182,71.2927354 C333.162375,66.060113 333.334765,66.0601132 327.054853,66.0601131 C320.774941,66.060113 291.423736,66.6570019 291.423736,66.6570019 C291.423736,66.6570019 256.833456,66.4218033 215.118219,66.1381582 Z" id="Combined-Shape" fill="#372A15"></path>
                <path d="M168,105 C238.049672,105 297.778777,94.5630521 320.834164,79.9136739 C327.407775,75.7368056 331,71.2174882 331,66.5 C331,62.652074 326.157225,61.9173804 318.186081,62.6932759 C310.485168,63.4428677 300.887251,41.5642169 288.892517,43.6885042 C269.26113,47.1652556 228.714871,56.8967429 208.5,53.8493423 C183.205012,50.0361119 200.232877,28 168,28 C128.656884,28 85.9203742,32.5549519 57.7573891,38.0367508 C33.5825278,42.7422793 63.1945163,65.7591888 31.9567261,62.6932755 C16.3178368,61.1583564 5,62.5065083 5,66.5 C5,87.7629629 77.9775858,105 168,105 Z" id="Oval-1-Copy-2" fill="#372A15"></path>
                <path d="M47.0861732,35.1566033 C54.1811221,58.165474 63.8607325,64.6956689 63.8607333,64.6956674 C63.8607341,64.6956658 6.17010523,64.6956673 6.17010523,64.6956673 C6.17010523,64.6956673 39.9912242,12.1477325 47.0861732,35.1566033 Z" id="Path-442-Copy" fill="#372A15" transform="translate(35.015419, 47.012236) scale(-1, 1) translate(-35.015419, -47.012236) "></path>
                <ellipse id="Oval-1-Copy" fill="#2B200F" filter="url(#filter-2)" cx="168" cy="34" rx="144" ry="34"></ellipse>
            </g>
        </g>
    </g>
</svg>