<svg width="156" height="199" viewBox="0 0 156 199" xmlns="http://www.w3.org/2000/svg" xmlns:xlink="http://www.w3.org/1999/xlink"><title>Lime</title><defs><filter x="-50%" y="-50%" width="200%" height="200%" filterUnits="objectBoundingBox" id="a"><feOffset dx="25" dy="25" in="SourceAlpha" result="shadowOffsetOuter1"/><feColorMatrix values="0 0 0 0 0 0 0 0 0 0 0 0 0 0 0 0 0 0 0.25 0" in="shadowOffsetOuter1" result="shadowMatrixOuter1"/><feMerge><feMergeNode in="shadowMatrixOuter1"/><feMergeNode in="SourceGraphic"/></feMerge></filter><path id="b" d="M8.605.578H.475v4.837h8.13V.578z"/></defs><g filter="url(#a)" transform="rotate(20 75.837 98.457)" fill="none" fill-rule="evenodd"><path d="M59.38.658C45.808.658 46.21 18.753 41.02 19.9 17.066 25.19 4.048 50.504.364 88.33c-2.843 29.2 10.722 71.403 48.82 78.406 5.442 1 6.46 15.823 18.244 14.617 10.515-1.077 11.635-11.68 16.492-13.675 34.316-14.1 39.842-47.032 39.842-79.35 0-31.547-13.413-61.645-42.19-69.886C75.97 16.84 76.21.658 59.38.658" fill="#488832"/><path d="M24.958 155.534c7.993 5.812 14.64 9.44 24.224 11.203 5.444 1 6.462 15.822 18.246 14.616 10.515-1.077 11.635-11.68 16.492-13.675 34.317-14.1 39.842-47.032 39.842-79.35 0-31.547-13.413-61.644-42.19-69.886C75.97 16.838 76.21.658 59.38.658c0 0 12.234 16.426 14.978 25.348 2.744 8.92 21.522 14.273 25.993 35.684 4.47 21.41 2.682 54.092-1.788 68.975-4.47 14.884-21.46 28.635-28.614 30.68-7.153 2.046-39.168-.247-44.992-5.81" fill-opacity=".5" fill="#488833" style="mix-blend-mode:multiply"/><path d="M44.02 26.005c-9.837 4.46-25.458 21.567-28.615 30.332-7.153 19.86-4.47 49.958-4.47 49.958S18.98 70.66 29.71 61.69c10.73-8.97 14.307-35.685 14.307-35.685M56.5 3.037c-.896.298-3.28 1.487-5.07 4.46-1.787 2.975-5.066 11.896-5.066 11.896s2.385-1.486 5.067-3.568c2.684-2.082 5.07-5.65 5.07-7.732V3.037z" fill-opacity=".46" fill="#488832" style="mix-blend-mode:screen"/><g transform="translate(54.846 .017)"><mask id="c" fill="#fff"><use xlink:href="#b"/></mask><path d="M8.605 1S3.952.05 1.422 1c-2.53.953.458 4.076 3.592 4.4C8.148 5.72 8.604 1 8.604 1" fill="#8C5F35" mask="url(#c)"/></g></g></svg>