<svg width="268" height="146" viewBox="0 0 268 146" xmlns="http://www.w3.org/2000/svg" xmlns:xlink="http://www.w3.org/1999/xlink"><title>GarlicChopped</title><defs><filter x="-50%" y="-50%" width="200%" height="200%" filterUnits="objectBoundingBox" id="a"><feOffset dx="5" dy="5" in="SourceAlpha" result="shadowOffsetOuter1"/><feColorMatrix values="0 0 0 0 0 0 0 0 0 0 0 0 0 0 0 0 0 0 0.25 0" in="shadowOffsetOuter1" result="shadowMatrixOuter1"/><feMerge><feMergeNode in="shadowMatrixOuter1"/><feMergeNode in="SourceGraphic"/></feMerge></filter><path id="b" d="M262.306.19H.048V141h262.258V.19z"/></defs><g filter="url(#a)" transform="translate(0 -1)" fill="none" fill-rule="evenodd"><g transform="translate(0 .81)"><mask id="c" fill="#fff"><use xlink:href="#b"/></mask><path d="M124.806 111.702l1.5 1.75s-.25 13.25 1.75 14.75 6.5.5 7.5 2 2.75 3 5.25 3 6-.25 8.25 0 13.5 8.5 13.25 7.75.5-12.702 1-14.6c.5-1.9-1.5-3.4 0-3.4s5.75.25 8-.25 4 1.25 6.5 1.5 8.5 2 10 .75 3.25-4.75 4-6.25 6.25-.75 9.25-1.25 5.5-1.25 7-2.5.75-4 0-6.25-3-5.5-1.5-5.5 3-3.25 4.5 0 2.75 6 5 5.75 7-2.75 8.25-3.25 4.75.25 5.75-.25 1-3.89 3.75-3.694c2.75.194 4 1.444 5-1.056s1.5-5.25 1.25-7-1-3.25 1.75-5 5.75-3.5 6.25-4.5 1-3.25 0-4.25 5.25-3.25 5.25-3.25l7-3.25s2-3 2-4.25-2.5-4.75-5-5.25-6 0-7.25-2.5-2.5-3.5-3.5-5-5-4.5-5-4.5 6.25-3 8-6 3.25-3.75.25-6.25-10-6.75-10-8.25-1.75-6-2.25-7-5.25 4.25-5.25 4.25-7.5 2-9 .75-1.25-2.753-1.25-5.127c0-2.373 9.25-5.373-1.75-5.123s-9.25 1.25-9.25 1.25l-6.75-1.265s-8.25.986-9.75 0c-1.5-.985-1.5-2.735-5.5-3.485s-9-.25-11 0-7.25-.75-9.25-2.25-4.5-2-5.5-3 1.25-.5-8.5-4.25-7.25-1.75-9.75-3.75-4.5-3.25-6.5-1.25-5.25 1.5-5.25 4.5 2 4.5 1.5 6.25-4.25 4.75-7.5 4-5-2.75-8-3.5-6.5-1.75-8.5-1-5.5 3-7.25 3-4.75-3.25-5.75-.75-6.25 12.5-8.5 13.75-4.75 2.75-5 4.25-.75 4.75-3.25 4-2.5-3.25-6.75-3.75-8-1.5-9-.75-6.75 2.5-9.25 3-10.25 3.5-11.5 5-5.25 3.25-6.75 2-4.25-2.75-4 .75 2.5 7 4.25 9.5-2.032 5.25-4.266 5.5-5.484.25-5.484.25 8.75 8 8.5 8.75-12-3-14.5-4.75-13.25 0-14.5.75-7.25 8.25-7.25 10.25-1.75 4.75 1.25 6.25 7.5 4.5 10 4.5 6 .75 8 1 2 7 2 7-.5 4.5 2.75 5.75 5.5 2.75 8.25 2 4.75-1.75 5.5-3.75 2.25-4.25 4.25-4.75 9.75 1.5 12 2.5 7 3.25 6.75 5.5 4 4 5 3.75 2.25-2.75 3.5-3.25.75 4.5 0 6.25-2.5 4.75.75 5 7.5.5 8.25-.75 4.25-5 4.25-5 5.75 2 6.5 4 4.25 4.5 6 5.5 7 2 7 2 3.5-2 5.25-.25 7 2 7 2 5.25-3 6-3.5 4-2.25 4-2.25" fill="#EADEBE" mask="url(#c)"/></g><path d="M143.306 75.77s-2.25 2.5-2.25 4.87c0 2.373 2.25 4.873 2.25 4.873s1.25-1.75 4.5-1.75 4.75-3.244 5.25-3.122c.5.123-3.5.373-4.875-1.127-1.374-1.5-4.874-3.744-4.874-3.744M110.556 58.513s1 3.25 0 5.25-.5 3.75 0 4.5 1.5 2.5 2.75 1.75 3 .366 4 .183 1.25-3.933 1.75-4.683 2.25-2.5 0-3.25-3.978-1-3.978-1l-2.522-2.75h-2zM38.056 52.263s5 7.25 8 9.5 9.5 7.157 9 8.454c-.5 1.296-1.75 5.552-1.75 5.552s-3.723-4.6-6.736-5.553c-3.014-.954-4.514-2.954-6.264-3.204s-3.5-.25-3.5-.25l-8.5-8.75s8.25-1.25 9.75-5.75M36.556 70.216s3.25 4.796 0 6.546-6.75-5.214-9.5-5.357c-2.75-.143-7-5.107-9 0s-4.25 9.863-7 9.235c-2.75-.628-10.5-7.628-10.5-7.628s-1.25 4.26 0 5.255c1.25.995 6.5 4.368 8.875 4.932 2.376.562 5.26.773 7.818 1.168l2.558.394s2.75-2.244 3.75-4.122c1-1.878 2-3.628 4.75-2.378s5.25 3.25 7.5 3.5 1.64 1.006 2.194-1.122c.556-2.128 3.7-2.518 1.806-4.872-1.893-2.353-3.25-5.552-3.25-5.552M41.694 83.263s6.61-.25 8.86-1.25c2.25-1 4.53-2.5 4.53-2.5s.72 5.25 3.22 6 4.25 1.25 6.25 2.25 3.5 3 2.5 4-2.25 4.25-3.5 4.25H59.18s-6.848-3.505-10.125-4.173c-3.276-.67-6.5-.827-6.5-.827s-.55-4.5-2.15-5.5c-1.6-1 1.29-2.25 1.29-2.25M62.556 69.103s3.637 5.16 4.818 8.66c1.182 3.5-.18 6.5 0 7.75.182 1.25 1.182 5.75 3.682 6.5s4.25 2.25 5 4 1 3.25 3.25 4.5 3.75 4.5 3.75 4.5l6.5 4s.75-6 0-9.25-1.5-5.75-2.25-6.75-5-1.66-6.5-3.955c-1.5-2.296-6.25-8.418-6.25-8.418s-4.5-5.628-6-6.878-6-4.66-6-4.66M118.806 38.513c-.793-1.983-2.5 6.75-1.5 8.75s3.5 5.25 4.5 6.5 3.5 4 3.75 2 1.25-4.25 2.25-5.25 1.75-3.02 1.75-3.02-2.25-5.23-4.75-5.98-5-.5-6-3M82.636 36.38c.433-.36 4.67 1.842 4.67 1.842s1.667-.96 2.583-3.46c.916-2.5 2.916-4.5 1.166-5.5s-4.833.177-5.79 1.714c-.96 1.537-2.63 5.403-2.63 5.403M103.556 15.263c3 1.75 10.293 4.75 11.522 5 1.228.25 7.422.75 8.2 0 .778-.75 5.32-3.112 4.028-3.5-1.293-.387-9.95-4.224-12.228-4.49-2.28-.27-11.522 2.99-11.522 2.99M133.61 5.176s.945 6.323 3.695 7.08c2.75.756 3.25 1.896 5.75 4.2 2.5 2.306 6.5 6.056 6.5 6.056s-6.5-4.25-8.5-3-4.5 1.793-4.75 1.147c-.25-.648 3.25-3.508 1.25-4.203-2-.695-4.562-1.4-4.78-1.235-.22.164 2.78.54 2.03-2.46s-1.196-7.586-1.196-7.586M171.806 24.263s6.25 1.5 8.5 0 2.5-2.75 4.5-1.75 2.5 3.5 5.5 3.75 3.75.75 6 0 5.75-.75 5.5 1.5 2 4.338 1.25 5.794c-.75 1.456-.25 1.544-2 0s-1.5-5.535-5-4.665c-3.5.87-3.75.37-6.25 1.12-2.5.75-2.298 3.545-2.298 3.545s-3.048 1.706 0 2.706 1.798 2.418 5.298 1.96c3.5-.46 3.75-2.042 5 0 1.25 2.04 2.5 5.29 3.75 3.04s1.25 3.75-1.75 3.5-4.25-3.5-5.5-4.25-5.5-.25-5.5-.25-4-.832-4.75-2.04c-.75-1.21 0-2.372-1.5-4.666-1.5-2.294-4.75-3.544-4.75-3.544s-3.5.75-4.75-2.5l-1.25-3.25zM218.306 23.763c-1.556.91-3.75 2-5 1.5s-3.5-1.367-4.25-.684c-.75.683 1.5 4.312 1.5 4.312 2.25 1.62 4.5 5.21 6 4.665 1.5-.544 1.75-1.206 3 0s4 2.956 4 2.956h4.5s1.5 1.918 4 1.71c2.5-.21 3.25 1.04 5 1.79s4 2.25 4.75 2-4.287-4.477-2.75-6.5c1.537-2.023 2-2.722-.5-2.61-2.5.11-4.75-1.64-6.25-1.39s-1.5 1.588-3.25 2.044c-1.75.456-5.25-.655-5.25-.655s-3.25-1.89-4-2.64c-.75-.75-1.75-1.75-1-3.25s2.25-2 2.5-3.25-1.745-.734-3 0M208.903 47.346c-.597.917-12.597 3.917-14.597 4.917s-6.347 3.164-6.8 4.207c-.45 1.043-2.45 3.793-2.45 4.793s4 .75 6 0 4.846-2.25 5.923-2.75c1.076-.5 4.076 0 4.076 0h4.75s-1.943-2.257-2.597-3.88c-.655-1.62 1.845-3.87 3.345-4.62 1.5-.75 2.347-2.667 2.347-2.667M223.306 52.263c.25 2.25 2.5 7.75 0 7.75s-1 1.91-1 1.91l3.087 3.59v4.704s-2.587 3.046-4.837 2.796c-2.25-.25-4 1.28-5.25.015-1.25-1.265-2.75-1.622-2.75-1.622s.25 1.357 1.5 3.357 4.918 4.75 4.918 4.75l3.582 3.25s1.924 7.09 2.837 6.295c.913-.795 4.913-1.08 6.413.062 1.5 1.143 3.25.484 2.5-.062-.75-.545-8.326-3.295-8.913-5.295-.587-2-1.872-5.75-1.872-5.75s5.036-1.238 6.536-2.244c1.5-1.007 2.5-1.257 2.75-3.007.25-1.75 1.68-4.75 1.68-4.75s2.32-1.994 2.57-3.997.5-4.503 0-4.253-4.25 4.756-5.75 4.253c-1.5-.503-3.5-1.003-3.5-1.003s-1.5-1.25.75-2.75 3 1 2.25-1.5-1.25-.586-2.5-2.293c-1.25-1.707-5-4.207-5-4.207" fill="#D3C091"/><path d="M239.556 71.006c-.75-.243-3.5 5.02-4.5 4.763-1-.257-.173-.007 2.29 2.493 2.46 2.5 4.21 5.5 5.96 5.25s4.75-2.75 4.75-2.75-.606-.463.862-1.25c1.468-.787 11.388-5.25 11.388-5.25l2-4.25s-6.25-.965-11.5 1.392c-5.25 2.358-6.5 5.12-7.75 4.364-1.25-.757-3.5-4.764-3.5-4.764M240.105 96.013s-4.878 4-5.464 2.75c-.584-1.25-.834-5-1.834-4.5s0 4.5-1.5 6.25-1 3-3.5 3.25-4.74-4.25-5.75 0c-1.01 4.25-.65 4.174-2.36 4.838-1.707.666-5.7.413-5.7.413s2.06 1.75 4.06 2c2 .25 2.75-1.75 5-2s4.25.5 6.25 0 4.92-3 5.335-3.5c.416-.5.493-.5 2.705-1 2.21-.5 4.864-2.5 4.538-3.5-.327-1-1.778-5-1.778-5M199.306 84.763c1.25 1.75 5.558 4.25 3.904 7.25s-2.627 5.25-1.766 6.5c.862 1.25 5.112 5.5 5.112 5.5l2.644-1.387s-2.894-1.613-3.644-4.863c-.75-3.25 1.75-2.5.75-5.5s-2.053-6.75-2.053-6.75l-4.947-.75zM185.056 91.513c-1 1-4.5 3.25-7 4.5s-6.25 4.75-6.25 4.75l-1.5 3.25s5.75 2 3.75 3.5-3.75 3.522-3.75 3.522 3.75 1.978 4.25 1.228-.25-2.5 3.125-2.25c3.376.25 8.126.5 7.376-1-.75-1.5-.25-3-1.5-5s-4-2-3.5-3.75 4.75-2 5-4.25 0-4.5 0-4.5M135.056 30.013s-4.5 4-5.5 5.25 1.62 5.5 1.62 5.5l2.88 6.583s-.25 2.917 1 5.667l1.25 2.75s1.75-3.5 3.5-3.5 4.422.5 4.586 0c.164-.5-.086-4.334-2.336-4.917-2.25-.583-.896-4.458-.896-4.458l3.232-4.666-4.336 3.82s-3.5-.53-4.5-2.53c-1-2-.25-4.5-.25-4.5s6.25.022 3-2.488l-3.25-2.51z" fill="#D3C091"/><path d="M189.806 18.763s.5 1.792-1 1.896c-1.5.103-3.5-1.647-5.25-1.897s-7.5 0-7.5 0 6.722-1.25 9.11-1.25c2.39 0 4.64 1.25 4.64 1.25M237.344 26.763c-1.89-.4-2.703 3.25-2.703 3.25s.29-.74 1.352-1.12c1.063-.38 1.352-2.13 1.352-2.13M207.306 26.732c-.75-1.47-.563-2.67-3.053-4.58-2.49-1.907-7.274 0-7.274 0s4.634-.877 6.23 1.867c1.596 2.743 4.096 2.712 4.096 2.712M246.056 42.04c-1 .223-4.5 4.738-6.25 2.73-1.75-2.007-6.25-2.73-6.25-2.73l2.437 5.306s1.063 3.417 3.813 2.917 4.25-2.084 4.75-2.917c.5-.833 1.5-5.305 1.5-5.305M241.91 55.763c-.854-.25-4.565.707-4.565.707s.21 1.293 2.46 2.043c2.25.75 2.105-2.75 2.105-2.75M257.556 66.513c-1.5-.5-5.5-2.546-6.25-2.148-.75.398-4.25-.648-5.25 0s-1 4.74-1 4.74h4.5s4.406-1.806 5.5-2.48c1.094-.673 2.5-.112 2.5-.112M237.344 80.64c-1.79-1.377-2.04-4.286-4.79-3.707-2.75.58-3.704.553-4.6 1.816-.9 1.263 3.287 5.792 4.694 4.778 1.407-1.015 6.98 0 6.98 0l-2.284-2.887zM227.828 91.513c-2.436-2.455-5.022-2.5-6.272 0s-3.5 4.5-3.5 4.5l-4.06 1.75s2.81 6.17 3.06 4.21 3.856-4.96 3.856-4.96.894-2.34 2.644-2.796c1.75-.454 4.044.046 4.272.17.228.126 0-2.874 0-2.874M185.167 66.625c-1.86-.862-5.11-.388-6.11 0s-3 3.192-3 3.192l1.68 1.588s4.9.393 5.234 0c.336-.392 1.836-1.46 2.086-2.302.25-.84.11-2.478.11-2.478M171.806 36.263c-1.75-2.25-4.25-2.8-4.25-2.8l-3.25 2.8 2.25 4 5.25 1.778s2.25 2.3 4.25 4.137c2 1.836 6.83 2.586 6.915 2.586.086 0-4.053-3-5.233-5-1.18-2-5.93-7.5-5.93-7.5M156.556 9.763c-1.75-.75-9.48-2.75-9.48-2.75s-2.81-4.57-3.954-5.16c-1.145-.592-6.167 2.737-6.24 3.324-.076.586 2.924 3.086 2.924 3.086l6.912 1.5 2.838 1.5s1.836.486 3.543.993c1.706.507 4.706 1.59 4.706 1.59s1.75-1.597 3-1.59c1.25.007-4.25-2.493-4.25-2.493M105.806 20.66c-2-1.897-4.75-6.008-6.25-4.202-1.5 1.805-2 5.586-2.75 5.696-.75.11 1.5-.806 4.5-.848 3-.043 8.673 2.713 8.673 2.713l10.197-1.866s-7.12-.806-8.62-.848c-1.5-.043-5.75-.647-5.75-.647M148.935 25.013c-.88-1-1.936-3.95-5.63-4.35-3.692-.398-7.5 3.356-7.5 3.356l-2 .993c2-.994 4.708-.443 7.355.278 2.646.723 5.917 2.223 5.917 2.223s2.98 5.27 3.98 5.01c1-.26-2.122-7.51-2.122-7.51M84.306 39.513c-1.5-.25-6 .168-7-1.29-1-1.46-5.25-4.666-5.25-4.666s-4.25 1.206-7.25 1.956-9.723 2.71-9.723 2.71 5.723 1.29 8.473 1.29c2.75 0 7.25.5 8.75 0s1.333 2.056 3.917 2.528c2.583.473 5.493.78 6.413 0 .92-.777 1.67-2.527 1.67-2.527M60.556 52.263c-1.5-1.25-8-1.4-10-1.95s-2.75-2.134-4.5-2.967c-1.75-.833-5.65-2.575-5.65-2.575s1.65 2.593 4.65 5.543c3 2.95 8.593 4.32 8.593 4.32l4.656-1.12 2.25-1.25zM30.306 68.86s-7.446-2.1-10.103-4.844c-2.657-2.745-5.647-.248-7.397 0-1.75.247-6.5 1.783-6.5 1.783v4.017s2.75-2.58 4.25-3.192c1.5-.612 3.5-.607 5-.485 1.5.123 4.647.485 4.647.485l10.103 2.235zM36.556 87.763s3.484 2.59 3.367 1.295c-.117-1.295-2.617-3.766-3.367-5.53-.75-1.765-5.5-.515-6.25-1.765s-4-2.25-4-2.25-1.25 3.03-1.5 4.015c-.25.985-1 1.985-1 1.985s4-1.5 5.5-.75 3.75 4.295 3.75 4.295l3.5-1.295zM81.306 66.14c-1.248-.148-5.25-.846-7.75.14-2.5.983-4.863-1.292-6.182.346-1.318 1.637 6.966 5.887 6.966 5.887l3.716 1.75s2.66-3.866 4.58-2.683c1.92 1.183 4.557 5.353 4.557 5.353s-3.898-10.555-5.887-10.792M115.077 74.263c-2.022-.25-8.772-1.25-10.272 0s-4.5 4.256-5.5 6.378c-1 2.123-2.645 7.123-2.645 7.123v6.454s.395-8.204 4.645-8.704 7.113-1.985 7.113-1.985v-4.015l6.66-5.25zM141.16 59.763c-2.355-1-5.725-1.5-7.915-1.25-2.19.25-2.98-2.314-5.71.593s-2.73 4.11-2.98 5.26c-.25 1.147 2.98 0 2.98 0l5.228-1.627 4.115 1.625 4.28-4.602zM165.306 79.513c-1.5-2.25-8 0-8 0l-2.5 4.954-5.25 1.046 3.543 3.545s3.956-3.545 5.706-4.295c1.75-.75 2.5-.47 3.5-1.235 1-.765 1.75.764 3 0 1.25-.765 0-4.015 0-4.015M151.253 109.013c-2.448-3.5-6.86-7.04-6.86-7.04h-7.513l-3.635 2.04 3.634 5 5.37-3.52 4.827 6.94s3.064 3.33 6.02 3.08c2.958-.25 4.61 3.5 4.61 3.5l1.848 4-1.847-11.978-6.455-2.022zM131.177 89.75c-2.12-1.737-6.635-.33-6.635-.33l-1.264 3.593h-4.722s2.194 7.25 4.722 5c2.528-2.25 2.488-2.34 4.258-3.796 1.77-1.454 3.64-.553 3.64-.553V89.75zM171.806 59.513c-1.25-2.75-5-1.757-5-4.88 0-3.12 3.5-2.52 1-4.32-2.5-1.8-4-1.3-5.75-1.55s-4.347 1.55-4.347 1.55 1.216 2.693 3.28 4.32c2.066 1.63 2.566-.233 3.316 3.074.75 3.306 2 3.362 4 3.584 2 .223 3.5-1.777 3.5-1.777M211.306 75.77c-1-2.507-2.403-8.257-2.403-8.257l-5.693-6.222-3.904 1.45 4.947 3.886 1.053 7.022 6 2.12zM193.306 75.77c-2.5.743-3.42 4.87-3.42 4.87l1.71 7.123 5.383 4.75v3.5l2.326-4.5-4.71-7.985 1.46-5.015-3.5-3.75.75 1.006zM204.252 111.034c.553-2.022-3.197-8.677-3.197-8.677l-4.076-.385-2.385 2.04 4.856 1.25 1.355 3.75 3.447 2.022zM173.64 91.513c-2.084-.25-4.584 2.704-4.584 2.704l-3.195 4.23h-3.554l2 4.18s2.083-2.114 3.666-2.864c1.584-.75 3.834-3.757 3.834-3.757l1.833-4.493zM96.66 44.77c-2.105-.758-4.91 2.575-4.91 2.575s.08 3.517-4.557 2.967l-4.638-.55-3 .61-2.343 4.262 8.093.39 4.584-.39s3.665 1.128 5.915-2.372l2.25-3.5-1.395-3.992z" fill="#FFF6DF"/><path d="M126.297 116.178s-.738 12 1.76 12.834c2.495.838 7.5 2 7.5 2s1.796 2.49 3.522 2.745c1.726.255 4.666.035 7.32.145 2.656.11 4.558.78 6.7 2.124 2.14 1.344 6.456 4.164 6.456 4.164l2.75 1.572s-1.047-4.25-1.316-5.25c-.268-1-7.89-7.542-7.89-7.542l-4.165-1.457-9.213-4.5-6.476-3.834-5.71 1.332-1.24-4.334z" fill="#D3C091"/></g></svg>