<svg width="270" height="344" viewBox="0 0 270 344" xmlns="http://www.w3.org/2000/svg" xmlns:xlink="http://www.w3.org/1999/xlink"><title>Avocado</title><defs><filter x="-50%" y="-50%" width="200%" height="200%" filterUnits="objectBoundingBox" id="a"><feOffset dx="30" dy="30" in="SourceAlpha" result="shadowOffsetOuter1"/><feColorMatrix values="0 0 0 0 0 0 0 0 0 0 0 0 0 0 0 0 0 0 0.25 0" in="shadowOffsetOuter1" result="shadowMatrixOuter1"/><feMerge><feMergeNode in="shadowMatrixOuter1"/><feMergeNode in="SourceGraphic"/></feMerge></filter><path id="b" d="M240.08.305H0v311.508h240.08V.305z"/><path id="d" d="M203.624.305H.69v311.508h202.934V.305z"/></defs><g filter="url(#a)" transform="rotate(29 113.807 192.81)" fill="none" fill-rule="evenodd"><g transform="translate(0 .47)"><mask id="c" fill="#fff"><use xlink:href="#b"/></mask><path d="M58.865 5.66s-31.495 9.697-37.23 24.61c-11.636 30.25-6.94 61.16-13.922 92.187-6.98 31.026-22.535 98.624 29.434 159.125 43.034 50.1 161.99 41.417 195.48-52.414 33.338-93.41-55.065-146.523-70.58-166.69C146.536 42.31 116.265-17.82 58.866 5.66" fill="#45602C" mask="url(#c)"/></g><g transform="translate(36.456 .47)"><mask id="e" fill="#fff"><use xlink:href="#d"/></mask><path d="M22.41 5.66c57.398-23.48 87.67 36.65 103.183 56.818 15.513 20.167 103.917 73.28 70.577 166.69C162.68 322.998 43.725 331.682.69 281.582c0 0 96.553 6.755 133.327-32.444 38.265-40.79 32.578-83.77 4.654-129.793-27.923-46.023-40.333-71.21-44.987-80.334-4.654-9.124-23.787-30.913-37.75-32.688C41.974 4.548 22.41 5.66 22.41 5.66" fill-opacity=".28" fill="#142B19" mask="url(#e)"/></g><path d="M37.147 28.288s-11.98 4.654-13.532 36.198c-1.55 31.542-8.79 91.01-7.24 117.382 1.552 26.372 10.278 42.403 10.278 42.403s-4.158-46.212-2.003-61.018c3.385-23.27 7.326-76.734 5.688-89.818-1.64-13.086-1.895-23.427 6.81-45.146" fill="#86A64F"/><path d="M60.847 12.775c-4.362.707-7.757 2.585-6.723 7.24 1.035 4.653 2.586 7.24 6.723 8.273 4.136 1.034 9.308-2.4 7.24-7.922-2.07-5.522-2.49-8.36-7.24-7.59" fill="#795536"/><path d="M60.214 14.622s-3.5.217-4.538 4.166c-1.036 3.95 2.205 6.268 2.205 6.268v-5.55c0-1.81 2.334-4.884 2.334-4.884" fill="#B28A6A"/></g></svg>