<?xml version="1.0" encoding="UTF-8" standalone="no"?>
<svg width="225px" height="251px" viewBox="0 0 225 251" version="1.1" xmlns="http://www.w3.org/2000/svg" xmlns:xlink="http://www.w3.org/1999/xlink">
    <!-- Generator: Sketch 3.6.1 (26313) - http://www.bohemiancoding.com/sketch -->
    <title>Page 1</title>
    <desc>Created with Sketch.</desc>
    <defs>
        <path id="path-1" d="M0.415043083,265.518987 L210.975252,265.518987 L210.975252,0.347133912 L0.415043083,0.347133912 L0.415043083,265.518987 L0.415043083,265.518987 Z"></path>
    </defs>
    <g id="Page-1" stroke="none" stroke-width="1" fill="none" fill-rule="evenodd">
        <g id="06---Game-1-Copy-7" transform="translate(-80.000000, -325.000000)">
            <g id="Page-1" transform="translate(44.000000, 252.000000)">
                <g transform="translate(27.000000, 73.000000)">
                    <g id="Group-3" transform="translate(9.132383, 0.278025)">
                        <mask id="mask-2" fill="white">
                            <use xlink:href="#path-1"></use>
                        </mask>
                        <g id="Clip-2"></g>
                        <path d="M66.4666843,44.3244987 C65.8932668,44.7420177 65.1886314,44.9753089 64.5560937,45.3163468 C64.0292994,45.6001443 63.4784725,45.8647013 63.011279,46.2307519 C59.4246558,49.0427519 55.8615845,51.8840937 52.2768839,54.6975367 C51.7784481,55.089081 51.201666,55.3800937 50.6614134,55.7177646 C50.5734542,55.6230051 50.4859756,55.5287266 50.3980163,55.4339671 C51.2670346,54.1203215 52.0985621,52.8023468 53.0488106,51.5166 C54.0423177,50.1726506 55.7125825,49.5593595 56.3542525,47.9720177 C56.4859511,47.6463722 56.8579756,47.4049038 57.1497312,47.1610304 C57.3794827,46.9681443 57.7217067,46.8844481 57.9024318,46.6617392 C60.6065784,43.3206253 63.8812587,40.8669797 67.034334,39.4032582 L70.8939674,40.9030557 C69.4356701,42.0661443 67.9735275,43.2268278 66.4666843,44.3244987 M62.8021955,36.6465747 L61.9846069,37.6629544 C62.1691772,37.1809797 62.4777556,36.9039165 62.8021955,36.6465747 M8.96872098,265.488828 C10.0578778,265.612929 10.8451853,265.368575 11.5954827,264.529689 M203.271222,236.123005 C199.517813,233.124372 213.759523,229.949208 209.920558,232.752068 C209.843173,232.290777 209.755214,231.962246 209.736468,231.629866 C209.060191,219.558372 208.9482,207.477739 209.308688,195.395663 C209.687923,182.669992 210.26134,169.949613 210.562228,157.222499 C210.838122,145.537739 210.946749,133.846727 210.974627,122.158119 C211.000582,111.45703 210.21664,100.796347 208.912151,90.1722203 C207.447605,78.2382962 205.040982,66.5131316 201.356305,55.0582962 C197.568289,43.2821443 192.696884,32.0476127 185.09009,22.1656886 C181.080493,16.9572835 176.418652,12.4299924 170.88635,8.86376456 C161.345413,2.71353671 150.752811,0.31616962 139.53536,0.347435443 C129.904061,0.373891139 120.532314,2.10986582 111.36965,4.99546076 C89.2015112,11.9763975 69.7404033,23.6125747 52.7907006,39.4566506 C39.1300978,52.2260937 28.127499,67.0037646 19.9261385,83.8411316 C13.9050143,96.2021949 9.54165784,109.136144 6.5049002,122.534752 C2.76254582,139.04503 1.05527088,155.799663 0.59,172.689942 C0.227107943,185.859587 0.413600815,199.033081 1.29175153,212.178676 C2.19778004,225.749005 3.32875356,239.304904 4.41887169,252.862246 C4.50635031,253.951739 4.93749491,255.050372 5.39411405,256.061461 C5.7550835,256.861385 6.47221589,257.391461 7.63298982,257.183663 C7.63298982,256.648296 7.63683503,256.135537 7.63250916,255.622296 C7.573389,248.841461 7.49167821,242.060625 7.45851324,235.27979 C7.40227699,223.800904 7.38112831,212.322018 7.3364277,200.843613 C7.32008554,196.49622 7.24462322,192.148828 7.25856212,187.801435 C7.29845621,175.241233 7.0725499,162.670929 7.50657841,150.124195 C8.02616293,135.098803 11.0946436,120.4866 15.9987332,106.26017 C22.807165,86.5093089 33.0027495,68.7171316 46.5874094,52.8615114 C46.8705132,52.5315367 47.1382363,52.1885747 47.413169,51.8518658 C47.5049735,51.9302709 47.5962974,52.009157 47.6876212,52.087562 C46.223556,54.9582456 45.0887373,57.9121443 45.1536253,61.2801949 C45.5227658,61.2162203 45.7438656,61.2094861 45.9418941,61.1382962 L135.484908,67.1278658 C131.966538,73.3940177 129.940591,80.2027519 128.798562,87.3554101 C128.633218,88.3895873 129.206635,88.8585747 130.393845,88.7243722 C132.353462,88.5026253 133.50943,87.2558405 134.126587,85.5102456 C134.558692,84.2879924 134.790847,82.9955114 135.121055,81.7362203 C136.463996,76.6143975 138.42169,71.7840684 141.478155,67.5285494 L160.540322,68.8037139 C161.295906,70.4093342 161.776558,72.1361696 162.05101,73.9293848 C163.095947,80.7563975 163.889503,87.6223722 164.786399,94.4724734 C165.073829,96.6682962 165.292045,98.8756633 165.665031,101.057056 C165.949576,102.721359 166.758033,104.093689 168.526831,104.60741 C169.707312,104.950853 170.282171,104.596347 170.319662,103.382271 C170.380705,101.431284 170.336004,99.4764481 170.336004,98.0959418 C169.938024,87.8869291 168.484534,78.3917392 165.673682,69.147157 L200.481519,71.4757392 C202.759328,81.2234608 204.357495,91.1000937 204.989552,101.086397 C205.625454,111.142448 206.107067,121.220625 206.224827,131.293992 C206.328167,140.108068 205.891255,148.931284 205.58556,157.746803 C205.221226,168.255005 204.689625,178.756954 204.332501,189.265157 C204.072468,196.908929 203.802823,204.559435 203.85954,212.20417 M13.0076375,242.923562 C12.7062688,242.594549 12.3630835,242.304018 11.9670265,241.926904 C11.0566721,243.571005 11.049943,245.112651 11.4733971,246.653815 C12.218888,249.364322 14.0131609,251.101739 16.9110102,251.935334" id="Fill-1" fill="#FFFFFF" mask="url(#mask-2)"></path>
                    </g>
                    <path d="M111.367343,125.350167 C113.698503,125.975484 116.145982,126.3348 118.331986,127.292496 C121.219261,128.557078 123.922927,130.25361 126.656874,131.848167 C127.386984,132.273863 128.01087,132.944395 128.557371,133.60723 C129.50089,134.752041 129.604711,136.027205 129.278829,137.519787 C128.174292,142.580041 124.945273,145.77637 120.527123,148.038572 C116.573281,150.062673 112.614634,152.068496 108.033542,152.165661 C105.255375,152.224825 102.592084,151.944395 100.419538,149.86161 C98.854536,148.360851 97.1251511,147.033737 95.5260228,145.566648 C93.0631633,143.307813 92.5185849,140.582395 93.7783731,137.503914 C96.4623324,130.945306 101.503888,127.33242 108.300304,125.95961 C109.273624,125.762876 110.280589,125.733534 111.272174,125.62723 C111.303897,125.534876 111.33562,125.442522 111.367343,125.350167 M99.6754892,123.551661 C95.4524831,125.727762 92.6185605,129.381053 89.9072041,133.130547 C87.0401165,137.096015 86.9391796,141.338547 89.0463568,145.569534 C92.9136807,153.336927 99.7249963,156.300446 107.972019,156.735762 C108.752597,156.695357 109.533656,156.66361 110.313273,156.610218 C110.702601,156.583281 111.090007,156.524116 111.476451,156.466395 C118.023888,155.487053 123.676353,152.596167 128.665518,148.333433 C133.12933,144.519003 135.023098,139.663661 134.350186,133.822724 C134.189648,132.42923 133.917119,131.117509 132.678479,130.159332 C128.88133,127.221306 124.906821,124.602192 120.371391,122.935003 C113.391848,120.369281 106.457004,120.057104 99.6754892,123.551661" id="Fill-4" fill="#FFFFFF"></path>
                    <path d="M111.774214,81.3044152 C110.585563,78.3288709 109.408927,75.3023392 107.791534,72.5552759 C105.060952,67.9178329 100.835542,65.679681 95.3787031,65.9091241 C90.3342631,66.1207696 86.2006582,68.3704658 82.6082672,71.7029215 C76.9615707,76.9406684 73.1062631,83.4131747 70.1810167,90.4600101 C69.4076481,92.3239342 68.9990941,94.3393772 68.5131552,95.9810734 C68.7501165,97.1879342 68.8717214,98.0037316 69.0851308,98.7945165 C69.1658802,99.0932253 69.4023609,99.4717823 69.6643161,99.5795291 C71.1341491,100.184643 72.7525035,99.347681 73.2081613,97.8036304 C75.1504749,91.2291494 78.2352978,85.2342886 82.3737092,79.7824911 C84.6721857,76.7549975 87.1936847,73.9612759 90.5962183,72.1012 C95.465701,69.4387949 100.293367,70.4902886 103.311379,75.1570734 C104.594239,77.1407696 105.567078,79.3688203 106.403412,81.5901367 C108.009269,85.8572 109.432479,90.1930481 110.895583,94.5125418 C111.285391,95.6631241 111.836699,96.4659342 113.211363,96.2768962 C114.525945,96.0960354 115.484365,95.2177063 115.479558,93.8424911 C115.475713,92.6923899 115.309408,91.4961114 114.959013,90.4027696 C113.978002,87.3430481 112.965269,84.2857316 111.774214,81.3044152" id="Fill-6" fill="#FFFFFF"></path>
                    <path d="M27.3323088,230.064266 C28.0076244,230.538544 28.6709238,231.030139 29.339991,231.513557 C30.6459218,231.703076 30.9477711,232.974873 31.6077059,233.865228 C31.9302232,234.299582 32.3844391,234.884494 32.8227935,234.924899 C33.4288953,234.980696 34.4089442,234.771937 34.6420603,234.351051 C35.2899788,233.181228 35.8965613,231.986873 35.7985084,230.470241 C35.7177589,229.222013 35.3116081,228.563506 34.2397548,228.111835 C33.2649931,227.70057 32.3642517,227.07862 31.3625735,226.771253 C28.6348749,225.93381 26.4599259,224.229101 24.3037222,222.483987 C23.4736367,221.812494 22.1681866,221.559962 22.1422314,220.114519 C22.1398281,219.964443 21.7706876,219.773 21.5399747,219.683532 C20.7714126,219.386266 20.3724717,218.913911 20.4032334,218.026443 C20.4128464,217.756595 19.964879,217.471354 19.7264758,217.192848 C19.4919177,217.436722 19.0598118,217.678671 19.0569279,217.924949 C19.0458729,218.976443 17.3342721,219.97743 18.9309971,221.090013 C18.9978077,221.13619 18.8641866,221.423835 18.8872578,221.590266 C18.9406102,221.972671 18.9055226,222.47581 19.1323902,222.707658 C20.0139055,223.607633 19.8240481,224.699051 19.8317385,225.764494 C19.8403902,226.893911 19.9970827,228.054595 19.7928057,229.145532 C19.5342151,230.523152 20.7036407,231.225911 20.9881866,232.328392 C21.1314208,232.885886 21.4798933,233.467911 21.9019055,233.859937 C22.9237711,234.810418 23.6625328,235.801304 23.4794045,237.313127 C23.4356652,237.675329 23.8302802,238.089962 23.9619788,238.357405 C23.8115348,238.890848 23.6308098,239.378114 23.5707283,239.880291 C23.5591927,239.975051 24.1225165,240.310797 24.2546957,240.235759 C24.6445043,240.014494 24.9506794,239.773506 25.3529849,239.292494 L26.8132049,239.292494 C26.7617752,239.292494 26.7103454,239.412266 26.6589157,239.479127 C27.3193312,239.934165 27.9542721,240.427203 28.6464106,240.826443 C29.6932701,241.430114 31.1357059,241.144392 31.9672334,242.305076 C32.0532701,242.424848 32.56949,242.345962 32.8126998,242.218975 C33.4043821,241.910646 33.9528057,241.518139 34.7905817,240.987101 C34.6194697,240.737456 34.394044,240.237684 34.0220196,239.900013 C33.1626143,239.11981 32.1431519,238.501709 31.3524798,237.662823 C30.4200155,236.67338 29.7749809,235.40062 28.7978159,234.468418 C27.5793637,233.305329 26.1441377,232.371203 24.8127324,231.325481 C23.2366754,230.087835 22.9117548,229.137354 23.4250908,227.342215 C24.7295796,228.249886 26.0340684,229.152266 27.3323088,230.064266" id="Fill-8" fill="#FFFFFF"></path>
                    <path d="M28.0727527,207.891073 C28.364989,207.970922 28.740378,208.275884 28.8105532,208.547175 C29.1407609,209.827149 30.0270827,209.964238 31.0931682,209.859858 C31.6002558,207.841529 31.4498118,207.616896 30.0323699,206.756846 C29.3955063,206.370592 28.9691682,205.636086 28.4491031,205.057909 C27.9905613,204.548997 27.5863332,203.976111 27.06771,203.53839 C25.7814859,202.452744 24.4577711,201.409428 23.1143495,200.395453 C22.8485491,200.194871 22.3972171,200.078466 22.088158,200.154466 C21.8843617,200.204491 21.7219014,200.653276 21.6459585,200.950542 C21.3152701,202.248795 20.3539666,203.380618 20.6139992,204.845301 C20.632264,204.948238 20.2035226,205.092542 20.180932,205.246947 C20.0896081,205.873706 19.7901621,206.740491 20.0823984,207.106061 C21.2816244,208.603453 22.6279299,209.968567 22.5471804,212.088871 C22.5418933,212.236061 22.6932986,212.385656 22.7591479,212.53958 C22.9903413,213.0812 23.3580399,213.610795 23.4123536,214.170694 C23.5171356,215.246238 23.4411927,216.338618 23.4435959,217.424263 C23.4469605,219.00439 24.793266,220.357959 26.4044106,220.468111 C27.3407202,220.532086 27.7415837,220.229529 27.6978444,219.222289 C27.6579503,218.294896 27.4075308,217.334795 28.4015185,216.535352 C29.0153108,216.041833 28.5216815,213.417909 27.9141377,212.906592 C26.3015511,211.548694 26.0237344,209.42839 24.9711071,207.750137 C24.8749768,207.596694 25.0417629,207.278744 25.0494534,207.235934 C26.1097711,207.4572 27.1042395,207.626516 28.0727527,207.891073" id="Fill-10" fill="#FFFFFF"></path>
                    <path d="M25.6389246,114.642008 C25.4779063,114.855577 25.3447658,115.164868 25.369279,115.413552 C25.3832179,115.551603 25.7494745,115.653577 25.9561548,115.773349 C26.679055,116.191349 27.4019552,116.609349 28.1238941,117.028792 C28.9414827,117.503552 29.7509002,117.991299 30.5785825,118.447299 C30.8366925,118.590159 31.1971813,118.578134 31.4168391,118.754185 C33.2697515,120.237628 35.1130509,121.734058 36.9337597,123.257425 C37.728277,123.922185 38.650167,124.389729 39.5297597,123.790387 C40.034444,123.445982 40.1695071,122.559476 40.4713564,121.917324 C40.3189898,121.925501 40.1666232,121.934159 40.013776,121.942337 C40.8760652,120.198185 39.7321141,119.839349 38.6107536,119.424716 C37.9686029,119.187096 37.2803096,118.964868 36.7501507,118.556489 C35.5759185,117.652185 34.554053,116.540565 33.3413686,115.699273 C32.6026069,115.186514 32.2762444,114.713678 32.0681222,113.813704 C31.9296945,113.212919 30.9280163,112.67659 30.2027128,112.404818 C29.8518371,112.273501 29.2414094,112.80502 28.7612383,113.059957 C28.4257434,113.238413 28.0993809,113.641982 27.7888798,113.622742 C26.8468024,113.564539 26.1700448,113.937805 25.6389246,114.642008" id="Fill-12" fill="#FFFFFF"></path>
                    <path d="M21.1797263,132.736934 C20.9490134,132.787922 20.8437507,133.491643 20.7158974,133.9082 C20.2472619,135.432529 21.1821295,136.784175 22.0434574,137.496554 C23.4387894,138.649061 24.7105939,140.13058 26.7509605,140.486048 C28.4111316,140.774656 30.3121092,140.627947 31.5757426,142.199415 C31.7430094,142.407694 32.2342354,142.454833 32.549543,142.407213 C32.7398811,142.377871 33.0398077,141.85501 33.0196204,141.83577 C32.4692741,141.304732 32.9556937,140.791972 33.0114493,140.277289 C33.1354574,139.138251 33.0450949,138.131972 31.7415674,137.636048 C30.2462599,137.067491 28.8119951,136.329618 27.2998648,135.818782 C26.434211,135.526327 25.618545,135.378175 25.7108301,134.60663 C24.6865613,133.915896 23.9179992,133.264124 23.0369646,132.852377 C22.5029605,132.602251 21.7704473,132.60658 21.1797263,132.736934" id="Fill-14" fill="#FFFFFF"></path>
                    <path d="M41.045543,82.5106025 C40.3548464,82.0507544 39.3176,82.0752861 39.0229605,82.9242734 C38.7653312,83.6655139 39.0412253,84.6107038 39.1589849,85.454881 C39.2056081,85.7877418 39.4637181,86.0902987 39.6223332,86.4087291 C39.8285328,86.821919 40.1029849,87.2177924 40.2212253,87.6555139 C40.5365328,88.8238937 41.9256163,89.6281468 41.4959136,91.1005266 C41.3675796,91.5401722 41.4762069,92.102957 41.4762069,92.5839696 L41.2527039,92.5839696 L41.2527039,94.5532354 C41.2527039,94.5965266 41.3421051,94.6402987 41.343547,94.6835899 C41.3839218,96.0049316 42.1145124,96.5504 43.416598,96.2973873 C44.31782,96.1222987 45.6718159,94.7239949 45.5694371,93.8259443 C45.4055348,92.3785772 46.0673923,90.9119696 44.8253882,89.4487291 C44.1116204,88.607438 44.4629768,86.9830582 43.9909768,85.6559443 C43.3920847,83.9724 42.244769,83.3086025 41.045543,82.5106025" id="Fill-16" fill="#FFFFFF"></path>
                    <path d="M33.1199804,102.093397 C32.2365426,101.379575 31.5285426,101.630663 30.9397442,102.051549 C30.4014143,102.435878 29.7054305,103.408967 29.8650069,103.811575 C30.3701719,105.088663 31.1339275,106.308511 32.0029458,107.385018 C32.9450232,108.551954 34.1279071,109.522157 35.183899,110.600106 C35.600624,111.025322 35.9582289,111.508739 36.5292432,112.187929 C36.9575039,112.012359 37.5241923,111.826208 38.0481026,111.556841 C39.4847707,110.817524 39.8082493,109.891094 38.9786444,108.50722 C38.6205589,107.910765 37.9803308,107.475929 37.4400782,107.000208 C37.2242656,106.810208 36.8652187,106.764992 36.6849743,106.555752 C35.4448929,105.116562 34.6667177,103.34403 33.1199804,102.093397" id="Fill-18" fill="#FFFFFF"></path>
                    <path d="M26.722554,175.835235 C26.3558167,175.252729 25.5564929,175.192603 25.3709613,175.974248 C25.1676456,176.830932 24.6913198,176.946375 24.0030265,177.042096 C22.9720285,177.185438 21.9318982,177.331666 20.9350265,177.615463 C20.5211853,177.733792 19.9232546,178.196527 19.9083544,178.525539 C19.8756701,179.241286 19.9208513,180.238425 20.3673768,180.645362 C21.5964033,181.766122 25.7059756,181.032096 26.787442,179.755008 C27.0791976,179.410122 27.6790509,179.121995 28.1202892,179.145084 C29.7122077,179.227818 31.2969165,179.454375 32.8739348,179.625134 C33.4709043,177.211413 32.5523788,176.119033 30.1899756,176.361463 C29.8910102,176.392248 29.586277,176.457185 29.3055764,176.562046 C28.2606395,176.953109 27.4103666,176.927615 26.722554,175.835235" id="Fill-20" fill="#FFFFFF"></path>
                    <path d="M22.0824864,190.181101 C22.8039446,190.211886 23.8508041,190.067582 24.1786086,190.47019 C25.108189,191.609228 26.3352929,191.25857 27.1120261,190.908873 C27.7974354,190.601025 28.3775821,189.385025 28.4467959,188.524975 C28.5756106,186.934266 27.7604253,185.632646 26.3117409,184.815405 C25.8008081,184.527278 25.3038143,184.21462 24.8000912,183.913025 C24.6208081,184.489278 24.4420057,185.065532 24.2612807,185.640823 C24.2487837,185.680747 24.2233092,185.716823 24.2040831,185.754823 C24.1406371,185.733177 24.077191,185.712013 24.013745,185.690367 C23.4691666,186.044873 22.9644823,186.51819 22.3679935,186.721658 C21.7364171,186.937152 21.0029426,186.838544 20.3434884,186.999203 C20.1267145,187.052114 19.8916758,187.471557 19.8556269,187.748139 C19.7047022,188.900646 20.891912,190.130114 22.0824864,190.181101" id="Fill-22" fill="#FFFFFF"></path>
                    <path d="M52.3476358,68.1916253 C51.7184627,67.9463089 50.9941206,67.9588152 50.9297132,66.9991949 C50.9205809,66.8649924 50.048198,66.5677266 49.9020798,66.7019291 C49.3123202,67.2445114 48.8504138,67.9265873 48.1433752,68.8015494 C48.7312122,69.4942076 49.1157336,70.0199544 49.5752367,70.4687392 C50.00542,70.8901063 50.4769393,71.296562 50.9965238,71.5938278 C52.3519617,72.3701823 53.7064383,73.1686633 55.1334933,73.7930177 C56.1500717,74.2369924 57.093591,73.6044608 57.426202,72.5082329 C57.7607356,71.4067139 57.2349026,71.0204608 56.2317825,70.6750937 C55.325754,70.3633975 54.5519047,69.6616 53.7280676,69.1199797 C53.2627967,68.8145367 52.8513589,68.3883595 52.3476358,68.1916253" id="Fill-24" fill="#FFFFFF"></path>
                    <path d="M19.2633198,168.92318 C19.3421466,169.088648 19.7117678,169.159357 19.9583422,169.192547 C21.8473035,169.446522 23.7381874,169.827484 25.6309939,169.840952 C26.2928513,169.845762 27.3416334,169.053534 27.5492749,168.409939 C27.997723,167.021256 27.1993605,165.274218 26.3130387,165.048142 C25.789609,164.91442 25.2161914,164.936066 25.294057,165.764851 C25.433446,167.24637 24.6168187,167.252623 23.5074745,166.998648 C21.7828961,166.604218 20.0390916,166.294446 17.978057,165.884142 C18.4803381,167.098218 18.8350591,168.028015 19.2633198,168.92318" id="Fill-26" fill="#FFFFFF"></path>
                    <path d="M27.7096204,149.192377 C27.7706631,149.140428 27.9917629,149.307339 28.1446102,149.327542 C28.9852701,149.439618 29.8268912,149.579592 30.6713963,149.608934 C30.8588505,149.615668 31.1775226,149.237592 31.2217426,148.996605 C31.2645206,148.767643 31.0544758,148.469415 30.9054737,148.233719 C30.7382069,147.967719 30.3570501,147.745972 30.3426305,147.489592 C30.2825491,146.410681 29.4500603,146.282732 28.7146631,146.135061 C27.6432904,145.919567 26.542598,145.850782 25.4606509,145.680504 C24.58971,145.542934 23.8942069,145.177846 23.9581336,143.975314 C23.3919259,143.975314 22.9925043,143.911339 22.6262477,143.994073 C22.2888301,144.070554 21.7399259,144.277871 21.7182965,144.475086 C21.6630216,144.985922 21.7428098,145.931592 21.9518933,145.984985 C23.688488,146.427035 23.9845695,148.613719 25.8821825,149.026428 C26.5180847,149.164959 26.9751845,149.817694 27.7096204,149.192377" id="Fill-28" fill="#FFFFFF"></path>
                    <path d="M43.2162623,75.6370278 C43.1965556,76.9574076 44.214576,78.3124203 45.4791707,78.6967494 C45.8055332,78.796319 46.2386004,78.9127241 46.3876024,79.1618886 C47.098967,80.3509519 48.2275373,80.1330532 49.2580546,80.0156861 C49.715635,79.9632557 50.1313988,79.2479899 50.5558143,79.2585722 C52.1400424,79.2975342 52.0535251,78.3566734 51.8646289,77.1281671 C51.1729711,76.9482684 50.4976554,76.7972304 49.8377206,76.5961671 C48.1251585,76.0742684 46.2121646,76.289762 44.7807837,74.7269519 C44.0026086,73.8774835 43.2345271,74.4094835 43.2162623,75.6370278" id="Fill-30" fill="#FFFFFF"></path>
                    <path d="M29.2662591,196.779248 C29.0009393,196.718641 28.7192774,196.540185 28.5380717,196.33383 C27.1239943,194.725805 25.2936725,194.467501 23.3239617,194.722438 C22.5433833,194.823932 22.3030574,195.335729 22.9360758,195.867248 C25.3157825,197.863932 27.7195218,199.851957 31.0759128,199.882742 C31.4397662,198.308868 30.7428212,197.116919 29.2662591,196.779248" id="Fill-32" fill="#FFFFFF"></path>
                    <path d="M35.6969466,131.331127 C35.6762786,131.084848 35.2816635,130.742848 35.0000016,130.665886 C33.0413458,130.131962 31.0663479,129.656241 29.0971177,129.161759 C28.9740709,129.302215 28.851024,129.442671 28.7284578,129.583127 C29.0596269,130.080975 29.3706086,130.594696 29.730136,131.071861 C29.9719039,131.392215 30.246356,131.849658 30.5707959,131.912671 C31.2177532,132.038696 31.5686289,132.221 31.6436106,132.945886 C31.6738916,133.237861 32.1305108,133.476443 32.3727593,133.757354 C32.71258,134.151304 33.1509344,134.514468 33.3369466,134.975278 C33.6830159,135.833405 34.1833743,135.741051 34.7409303,135.323051 C36.1434721,134.272038 35.8171096,132.753962 35.6969466,131.331127" id="Fill-34" fill="#FFFFFF"></path>
                    <path d="M34.7866884,217.109681 C34.6549898,216.772491 34.3733279,216.364111 34.0613849,216.250111 C32.8064033,215.791225 31.5134501,215.433833 30.0748595,214.988896 C29.5370102,216.370846 29.5970916,217.629175 30.5458982,218.991884 C31.2428432,219.992871 31.9056619,220.592213 33.2308187,220.423377 C34.5391527,220.256947 34.9871202,219.494542 34.8794542,218.269403 C34.8453279,217.880744 34.9217515,217.455529 34.7866884,217.109681" id="Fill-36" fill="#FFFFFF"></path>
                    <path d="M20.3382012,148.858025 C19.8205393,149.395797 19.0399609,150.050456 19.0548611,150.647873 C19.0808163,151.645975 19.627798,152.634937 19.9878061,153.615722 C20.0281809,153.724911 20.2757165,153.792253 20.4367348,153.817747 C21.5782827,153.998127 22.7222338,154.162152 24.0243193,154.355038 C24.0243193,153.548861 23.972409,152.862456 24.0377776,152.187595 C24.1190077,151.346785 23.8459976,150.967266 22.9683275,150.811418 C22.190633,150.673367 21.3725637,150.393899 21.2937369,149.301038 C21.2802786,149.118734 20.4261605,148.767114 20.3382012,148.858025" id="Fill-38" fill="#FFFFFF"></path>
                    <path d="M30.932246,244.37242 C30.4717817,244.341154 29.9190322,244.003003 29.6162216,243.632623 C28.7125963,242.52918 27.4965475,242.542167 26.3016473,242.621534 C25.4624293,242.677332 24.9553418,243.716319 25.4484904,244.257939 C26.1886941,245.070851 26.7549018,246.299357 28.2487674,245.795256 C28.3751788,245.752927 28.5717654,245.849129 28.7106737,245.926091 C29.2206452,246.21037 29.7200424,246.513889 30.2232847,246.810192 C30.2679853,246.733711 30.3126859,246.65723 30.3573866,246.58123 C30.4876432,246.58123 30.6203031,246.598066 30.7476758,246.578344 C31.3316676,246.486952 32.1160912,246.787585 32.1761727,245.732724 C32.2290444,244.800522 31.8733621,244.436876 30.932246,244.37242" id="Fill-40" fill="#FFFFFF"></path>
                    <path d="M28.0223804,160.200352 C29.3095658,160.336478 30.58858,160.549086 31.9127756,160.734757 C32.7784293,158.174808 30.9058102,156.780352 29.4878876,157.229137 C28.969745,157.393162 28.5020709,157.748149 28.0468937,158.067061 C27.6979405,158.311896 27.2163275,158.588959 27.1288489,158.936732 C26.9726371,159.559162 27.1865271,160.111846 28.0223804,160.200352" id="Fill-42" fill="#FFFFFF"></path>
                    <path d="M56.8073629,67.5725139 C57.3649189,67.8832481 58.1094485,67.8818051 58.7785157,67.9255772 C58.8313874,67.9289443 59.0798843,67.1703873 58.9731796,66.8558051 C58.8102387,66.3752734 58.4867601,65.8928177 58.1036807,65.5570709 C57.5480473,65.0702861 56.8784994,64.7143367 56.173864,64.2467924 C55.6658151,64.5445392 55.0352,64.7186658 54.9904994,64.989957 C54.9337825,65.332919 55.3197458,65.7797797 55.5773752,66.1362101 C55.9498802,66.6508937 56.289701,67.2839063 56.8073629,67.5725139" id="Fill-44" fill="#FFFFFF"></path>
                    <path d="M28.7482607,111.532213 C29.070778,111.479782 29.3332138,111.052643 29.8374175,110.606263 C29.3336945,110.097833 29.0361711,109.7972 28.7386477,109.497048 C28.4766925,109.801048 28.0503544,110.076668 27.9921955,110.415782 C27.9061589,110.915073 27.8773198,111.673149 28.7482607,111.532213" id="Fill-46" fill="#FFFFFF"></path>
                    <path d="M36.1134794,94.0598127 C35.6256179,93.6745215 35.3506851,93.2935595 35.1329499,93.3238633 C34.8142778,93.3681165 34.5369418,93.7072304 34.2418216,93.920319 C34.4821475,94.2151797 34.6792147,94.6759899 34.9757768,94.7529519 C35.2132187,94.8145215 35.5717849,94.4104709 36.1134794,94.0598127" id="Fill-48" fill="#FFFFFF"></path>
                    <path d="M23.5056481,164.352742 C23.5541939,164.598539 23.8819984,164.934286 24.1165564,164.958818 C24.3640921,164.984311 24.644312,164.688008 24.9105931,164.532641 C24.6769963,164.219982 24.4433996,163.906843 24.0281165,163.350792 C23.7488578,163.853451 23.4628701,164.135805 23.5056481,164.352742" id="Fill-50" fill="#FFFFFF"></path>
                    <path d="M109.624115,136.601582 C109.785133,137.492418 110.245117,138.577101 109.151154,139.317861 C108.710396,139.61657 108.216767,140.365025 107.938469,140.279886 C106.975243,139.986468 106.078347,139.446772 105.201638,138.924392 C105.04062,138.828671 104.968042,138.317835 105.069459,138.098494 C105.352563,137.489532 105.634225,136.779557 106.136025,136.403405 C106.560921,136.084975 107.292473,136.176848 108.095642,136.056114 C108.534958,136.200899 109.571724,136.312013 109.624115,136.601582 M103.998567,131.752494 C103.58809,131.860241 103.0935,131.993962 102.839235,132.289304 C101.890429,133.390342 100.702257,134.444722 100.225932,135.744899 C99.7981515,136.912797 99.9457116,138.445304 100.284571,139.696899 C100.613337,140.911937 101.016604,142.335253 102.523447,142.841278 C102.603235,142.868215 102.551805,143.186646 102.632074,143.330468 C102.792131,143.617633 102.951227,143.93943 103.197801,144.13857 C104.758477,145.396899 106.608987,145.999127 108.424889,145.145329 C110.339805,144.244873 112.041312,142.88938 113.834143,141.729658 C113.864905,141.709937 113.880767,141.657987 113.891341,141.618063 C114.298453,140.074975 114.704604,138.531405 115.111235,136.988316 C115.052596,136.960418 114.994437,136.933 114.936278,136.905101 C114.850241,136.007051 115.095854,134.653962 114.612319,134.300418 C113.415496,133.425456 112.638763,131.998291 110.952156,131.680342 C108.603211,131.237329 106.307618,131.147861 103.998567,131.752494" id="Fill-52" fill="#FFFFFF"></path>
                    <path d="M219.093748,233.039473 L219.093748,242.178714 L218.869284,231.908132 L218.044966,90.4500051 L200.831061,36.9150388 L177.630865,10.6962888 C177.630865,10.6962888 159.841803,2.1376953 142.070318,4.12207009 C124.298834,6.10644487 102.597655,14.7060545 102.597655,14.7060545 L51.9596057,50.0771696 L22.8176912,98.6955241 L14.5053002,160.852461 L12.603842,202.265727 L16.764844,256.128081 L217.171141,256.128081 L219.093748,233.039473 Z" id="Fill-54" fill="#FFFFFF"></path>
                    <g id="Group-58" transform="translate(0.000000, 0.278025)" fill="#000000">
                        <path d="M59.5305914,55.2902405 C59.6185507,55.384519 59.7060293,55.4792785 59.7939886,55.573557 C60.3342411,55.2363671 60.9110232,54.9448734 61.4089784,54.5538101 C64.993679,51.7398861 68.557231,48.8990253 72.1433735,46.0870253 C72.610567,45.7204937 73.1618745,45.4564177 73.6886688,45.1721392 C74.3207259,44.8315823 75.025842,44.5982911 75.5992595,44.1807722 C77.1061026,43.0831013 78.5682452,41.9224177 80.0260619,40.7593291 C80.3807829,40.4760127 80.6581189,40.0931266 80.957565,39.7443924 C81.3050762,39.3398608 81.5833735,38.8574051 81.9866403,38.5231013 C83.0190802,37.6668987 83.9678868,36.7722152 84.2851169,35.2599114 C83.5554876,35.3147468 82.8710395,35.4537595 82.288009,35.777 C80.2341841,36.916038 78.2880253,38.2744177 76.1664285,39.2590506 C73.0133532,40.7232532 69.7391536,43.1768987 67.0345263,46.5175316 C66.8542819,46.7407215 66.5120578,46.8244177 66.2818257,47.0173038 C65.9905507,47.2611772 65.6185263,47.5026456 65.486347,47.8282911 C64.844677,49.4156329 63.1748929,50.0289241 62.1813857,51.3728734 C61.2311373,52.6581392 60.3996098,53.9761139 59.5305914,55.2902405 M233.446249,247.46057 C230.674331,247.928595 228.460449,246.536063 227.61306,243.85538 C226.74308,241.104949 227.11174,238.350671 227.675064,235.60457 C227.725052,235.359734 227.783211,235.116823 227.90818,234.555962 C226.875259,234.967709 225.952408,235.144722 225.265557,235.645456 C223.17328,237.169785 220.979585,238.632063 219.190119,240.47338 C217.460734,242.252646 215.506885,243.17138 213.162746,243.442671 C207.725133,244.073278 201.561736,241.183354 199.472824,234.803203 C193.357492,237.44781 187.259463,240.085684 180.976864,242.803405 C180.50198,240.560443 180.057378,238.496899 179.630559,236.429506 C179.12972,234.003759 178.60629,231.58138 178.174184,229.143127 C178.032392,228.343203 177.697858,228.043051 176.914396,227.994949 C174.440962,227.841506 172.140563,228.485582 170.072799,229.733329 C167.73539,231.143658 165.513818,232.752165 163.280229,234.328443 C160.420351,236.34581 157.523463,238.216468 153.889255,238.51662 C148.887593,238.92981 145.002966,234.43138 146.356001,229.405278 C145.362974,229.94257 144.497321,230.369228 143.672042,230.863228 C137.430298,234.598772 132.222917,239.441127 128.105655,245.452342 C125.219341,249.666013 119.760579,249.958468 116.3244,246.133456 C113.900473,243.434975 112.966086,240.107329 112.204734,236.693582 C112.115333,236.294823 112.019683,235.897987 111.897598,235.376089 C110.18071,237.641658 108.674828,239.821127 106.969475,241.830797 C104.718583,244.484063 102.070192,246.687101 98.5676831,247.469228 C95.5285222,248.147937 92.6085629,247.719354 89.9443104,246.008392 C88.2966363,244.950646 87.0334835,243.47538 86.7974835,241.55662 C86.3572065,237.973076 82.5470802,236.524266 79.467064,236.995658 C77.2055976,237.341987 75.4252635,238.579152 73.9179397,240.179962 C72.4312839,241.758646 71.1474631,243.527329 69.6747462,245.120443 C68.4130354,246.485557 67.1047014,247.840089 65.6473654,248.982494 C63.7752269,250.450063 61.5844163,251.076823 59.1571251,250.706443 C56.142958,250.247076 53.4561149,251.221127 51.0716016,252.935937 C49.1393817,254.326063 47.3527992,255.926873 45.5546811,257.494975 C43.2538012,259.502241 40.9562859,261.522013 37.9291413,262.341658 C34.7794305,263.194013 31.9512758,262.497025 29.7321067,260.068392 C29.014013,259.282418 28.6751536,258.149152 28.1084652,257.070241 C27.0120986,258.127025 25.8263308,259.249228 24.6645955,260.395962 C23.3346322,261.708646 21.9719845,262.994873 20.7280578,264.385481 C19.9777605,265.224367 19.1899723,265.468722 18.1012961,265.34462 M-4.80651729e-05,259.305506 C3.48804155,261.93857 7.38564644,262.701937 11.58462,261.575405 C17.4408807,260.003937 21.655235,255.973051 26.0435853,251.791608 C23.1452554,250.958013 21.3509825,249.220114 20.6059723,246.510089 C20.1820375,244.968924 20.1892473,243.427278 21.0996016,241.783177 C21.4956587,242.160291 21.838844,242.450823 22.139732,242.779835 C25.6888644,246.658722 29.2274224,250.547228 32.7770354,254.425633 C34.8073084,256.643582 36.6707951,257.051 39.4441556,255.847987 C42.2252065,254.642089 44.365068,252.613658 46.2771006,250.330291 C48.1213613,248.128215 50.2487259,246.312392 52.9547951,245.273405 C55.534453,244.283 57.9876994,244.052595 59.7045874,246.638519 C62.9523511,243.913101 66.0597646,241.133329 69.3531902,238.594544 C72.1688481,236.424215 75.111398,234.384722 78.166901,232.572266 C79.8366851,231.581861 81.8116831,230.948848 83.7304448,230.57943 C85.9832595,230.145557 87.8813532,231.233608 88.9753165,233.217304 C89.9957401,235.068241 90.7292147,237.081278 91.5386322,239.04381 C92.2379804,240.73938 92.9070477,242.434468 94.4499397,243.585532 C95.3136709,244.230089 95.8909336,244.382089 96.543178,243.174266 C98.6200741,239.327127 101.375651,236.06057 105.290078,233.935937 C111.05838,230.804544 117.60774,232.642013 120.557019,238.165 C121.56831,240.059228 121.78941,242.022241 121.463048,244.230089 C121.753842,243.914063 122.05473,243.607177 122.333989,243.281051 C127.305369,237.473785 132.906404,232.357253 139.182754,227.994468 C142.045516,226.005 145.160139,224.805354 148.728978,225.417684 C150.77271,225.768342 151.937329,227.09738 152.058453,229.166215 C152.147374,230.682367 152.084889,232.213911 152.281956,233.713228 C152.357899,234.290924 152.864025,234.976848 153.371593,235.264013 C153.632587,235.411684 154.430469,234.89219 154.809703,234.50257 C157.693614,231.540975 160.578966,228.576494 164.125695,226.392696 C167.75798,224.155506 171.619056,222.593177 175.982412,223.659101 C179.787732,224.588899 182.750469,226.761633 184.532245,230.335557 C185.393092,232.06143 185.64928,233.890241 185.099414,235.785911 C185.033084,236.015354 185.033565,236.264519 184.979251,236.686848 C186.682681,235.493937 188.20106,234.351532 189.796824,233.330823 C192.547113,231.571278 195.482934,230.276392 198.848457,230.576544 C202.611479,230.91181 205.552587,232.435177 206.976278,236.250089 C207.881345,238.674873 211.743382,239.14338 213.289158,237.069734 C213.618404,236.627684 213.7775,235.941278 213.759716,235.375608 C213.513622,227.603405 213.049793,219.833608 212.992115,212.060443 C212.934917,204.415228 213.205044,196.765203 213.464596,189.12143 C213.82172,178.613228 214.353801,168.110797 214.718135,157.602595 C215.023349,148.787557 215.460262,139.964342 215.357402,131.150266 C215.239162,121.076899 214.758029,110.998722 214.121646,100.942671 C213.49007,90.9563671 211.891903,81.0797342 209.614095,71.3315316 C206.566763,58.2922405 202.382689,45.6526709 195.776131,33.9380886 C190.84897,25.2009747 184.685573,17.5240127 176.09152,12.0726962 C169.62387,7.97062025 162.524644,5.70168354 154.935634,4.94216456 C140.694404,3.51692405 127.201549,6.68968354 114.120612,11.9240633 C98.8632839,18.0290759 84.8167177,26.2818101 71.93429,36.5023671 C71.6103308,36.7597089 71.3017523,37.0372532 71.1171821,37.5192278 C73.0263308,36.5422911 74.9383633,35.5701646 76.8446281,34.5874557 C78.6586077,33.6518861 80.4610517,32.6927468 82.2827218,31.7716076 C82.8599845,31.4796329 83.4660864,31.215557 84.087569,31.0443165 C86.6263715,30.3458861 88.4398705,31.6859873 88.4571739,34.295481 C88.4759193,37.1368228 87.3752269,39.613557 85.4463715,41.590519 C76.837899,50.4142152 66.6625018,56.8227468 55.0739886,60.9945696 C54.8764407,61.0657595 54.6553409,61.0720127 54.2857198,61.1364684 C54.2208318,57.7684177 55.3561312,54.814519 56.8201963,51.9438354 L56.5457442,51.7081392 C56.2708114,52.0448481 56.0026077,52.3873291 55.7199845,52.7177848 C42.134844,68.5734051 31.9392595,86.3655823 25.1313084,106.116443 C20.2272187,120.342873 17.1587381,134.955076 16.6391536,149.980468 C16.2051251,162.527203 16.4310314,175.097506 16.3906566,187.657709 C16.3767177,192.00462 16.45218,196.352494 16.4690029,200.699886 C16.5132228,212.178291 16.5348521,223.657177 16.5910884,235.135582 C16.6242534,241.916899 16.7059642,248.697734 16.7646037,255.47857 C16.7694102,255.991329 16.765565,256.50457 16.765565,257.039937 C15.604791,257.247734 14.8876587,256.717658 14.5262086,255.917253 C14.0700701,254.906646 13.6384448,253.807532 13.5509662,252.718038 C12.4613287,239.160696 11.3303552,225.605278 10.423846,212.034468 C9.54617597,198.889354 9.35920244,185.715861 9.7220945,172.546215 C10.187846,155.655456 11.895121,138.901304 15.6369947,122.391025 C18.674233,108.992418 23.0375894,96.0584684 29.0587136,83.6974051 C37.2600741,66.860038 48.2621923,52.0818861 61.9227951,39.312443 C78.8724978,23.4688481 98.3336057,11.8326709 120.502225,4.85173418 C129.664889,1.96613924 139.036156,0.230164557 148.667936,0.203708861 C159.884905,0.172443038 170.477989,2.56981013 180.018925,8.72003797 C185.550746,12.2857848 190.212587,16.8130759 194.222184,22.021962 C201.829459,31.9034051 206.700864,43.1384177 210.488881,54.9145696 C214.173557,66.3694051 216.579699,78.0945696 218.044726,90.0284937 C219.348734,100.652139 220.132677,111.313304 220.107202,122.014392 C220.079325,133.703 219.970697,145.394013 219.694803,157.078772 C219.393915,169.805886 218.820017,182.526266 218.440783,195.251456 C218.080775,207.334013 218.192767,219.414646 218.869044,231.486139 C218.887789,231.818519 218.975268,232.147051 219.052653,232.608342 C222.891618,229.805481 226.901695,229.111861 230.655585,232.110494 C234.208082,234.948468 234.553671,238.855253 232.757956,243.251709 C233.946127,242.733177 234.878591,242.333937 235.804327,241.920266" id="Fill-56"></path>
                    </g>
                    <path d="M111.367343,125.206248 L111.272174,125.483311 C110.280589,125.590096 109.273624,125.619438 108.300304,125.815691 C101.503888,127.188501 96.4623324,130.801868 93.7783731,137.359995 C92.5185849,140.438476 93.0631633,143.163894 95.5260228,145.422729 C97.1251511,146.889818 98.854536,148.216932 100.419538,149.717691 C102.592084,151.800476 105.255375,152.080906 108.033542,152.021742 C112.614634,151.924577 116.573281,149.918754 120.527123,147.894653 C124.945273,145.632451 128.174292,142.436603 129.278829,137.375868 C129.604711,135.883286 129.50089,134.608122 128.557371,133.463311 C128.01087,132.800476 127.386984,132.129944 126.657355,131.704248 C123.922927,130.110172 121.219261,128.413159 118.331986,127.148577 C116.145982,126.190881 113.698503,125.831565 111.367343,125.206248 M107.972019,156.591843 C99.7249963,156.156527 92.9136807,153.193008 89.0463568,145.425615 C86.9391796,141.194628 87.0401165,136.952096 89.9072041,132.986628 C92.6185605,129.237134 95.4524831,125.583843 99.6754892,123.407742 C106.457004,119.913185 113.391848,120.225362 120.371391,122.791084 C124.906821,124.458273 128.88133,127.077387 132.678479,130.015413 C133.917119,130.97359 134.189648,132.285311 134.350186,133.678805 C135.023098,139.520223 133.12933,144.375084 128.665518,148.189514 C123.676353,152.452248 118.023888,155.343134 111.476451,156.322476 C111.090007,156.380197 110.702601,156.439362 110.313273,156.466299 C109.533656,156.519691 108.752597,156.551438 107.972019,156.591843" id="Fill-59" fill="#000000"></path>
                    <path d="M179.468627,98.2300962 C179.468627,99.6106025 179.513328,101.565438 179.452285,103.516425 C179.414314,104.730501 178.839454,105.085008 177.658974,104.741565 C175.890656,104.227843 175.081719,102.855514 174.797173,101.19121 C174.424187,99.0098177 174.205971,96.8024506 173.918542,94.6066278 C173.022126,87.7565266 172.22809,80.8905519 171.183153,74.0635392 C170.646265,70.5540709 169.326876,67.2966532 166.680888,64.7102481 C162.273312,60.4013367 156.715055,60.4797418 152.626631,65.1224759 C148.375747,69.9504 145.871552,75.6999443 144.253198,81.8703747 C143.92347,83.1291848 143.691316,84.4221468 143.258729,85.6444 C142.641572,87.3899949 141.485605,88.6367797 139.526468,88.8585266 C138.339259,88.9927291 137.765841,88.5237418 137.930705,87.4900456 C139.309695,78.8568304 141.968179,70.7224253 146.994354,63.4418177 C150.444473,58.4440962 155.201963,56.8654127 161.01112,57.2901468 C164.63235,57.5551848 167.985377,58.2627544 170.564554,61.0406025 C172.497255,63.1229063 173.670045,65.6429316 174.511185,68.3135139 C177.519104,77.8630582 179.056709,87.6651342 179.468627,98.2300962" id="Fill-61" fill="#000000"></path>
                    <path d="M68.5132513,95.8373468 C68.9991902,94.1956506 69.4072635,92.1797266 70.1811128,90.3162835 C73.1063593,83.2694481 76.9611862,76.7969418 82.6083633,71.5591949 C86.2007544,68.2267392 90.3343593,65.977043 95.3787992,65.7649165 C100.835158,65.5359544 105.061048,67.7741063 107.79163,72.4110684 C109.409023,75.1586127 110.585178,78.1851443 111.77431,81.1606886 C112.965365,84.1420051 113.977618,87.1993215 114.958628,90.258562 C115.309504,91.3523848 115.475809,92.5486633 115.479655,93.6987646 C115.48398,95.0739797 114.526042,95.9523089 113.211459,96.1331696 C111.836795,96.3222076 111.285488,95.5193975 110.895679,94.3688152 C109.432095,90.0493215 108.008885,85.7129924 106.403508,81.4464101 C105.567174,79.2246127 104.594335,76.997043 103.311475,75.0133468 C100.292982,70.346562 95.4657971,69.2950684 90.5963145,71.9569924 C87.1937809,73.8170684 84.6722819,76.6107899 82.3738053,79.6382835 C78.2353939,85.090562 75.1500904,91.0854228 73.2082574,97.6594228 C72.7521189,99.2039544 71.1337646,100.040916 69.6644122,99.4353215 C69.402457,99.3275747 69.1654957,98.9494987 69.0852269,98.6507899 C68.8718175,97.8600051 68.7502126,97.0437266 68.5132513,95.8373468" id="Fill-63" fill="#000000"></path>
                    <path d="M26.8134452,239.120051 L25.3527446,239.120051 C24.9509198,239.488506 24.644264,239.856481 24.254936,240.077747 C24.1222762,240.152785 23.559433,239.830987 23.570488,239.736228 C23.6310501,239.234532 23.8117752,238.746785 23.9622191,238.213342 C23.8300399,237.94638 23.4359055,237.531266 23.4796448,237.169544 C23.6622925,235.657722 22.9240114,234.666354 21.9016652,233.716354 C21.4801336,233.323848 21.1316611,232.741823 20.9879462,232.18481 C20.7038811,231.082329 19.5339747,230.37957 19.7925654,229.001468 C19.997323,227.910532 19.8401499,226.750329 19.8319788,225.620911 C19.8238077,224.555468 20.0141458,223.46357 19.1326305,222.563595 C18.9052823,222.331747 18.9408505,221.829089 18.8874982,221.446203 C18.8639462,221.279772 18.9980481,220.992608 18.9307568,220.945949 C17.3340318,219.833367 19.0461132,218.83238 19.0571682,217.780886 C19.0595715,217.534608 19.492158,217.292658 19.7267161,217.048785 C19.9651193,217.327291 20.4126061,217.613013 20.4034737,217.88238 C20.372712,218.769848 20.7711723,219.242203 21.5397344,219.539949 C21.7709279,219.629418 22.1395878,219.82038 22.1424717,219.970456 C22.1679462,221.415899 23.473877,221.66843 24.3034819,222.339924 C26.4601662,224.085038 28.6351153,225.790228 31.3623332,226.62719 C32.3640114,226.934557 33.2647527,227.556987 34.2399951,227.967772 C35.3118485,228.419443 35.7179992,229.07843 35.7987487,230.326177 C35.896321,231.84281 35.2897385,233.037165 34.64182,234.206987 C34.4087039,234.627873 33.428655,234.837114 32.8230338,234.780835 C32.3841988,234.74043 31.9304635,234.156 31.6079462,233.721165 C30.9475308,232.83081 30.6461621,231.559013 29.3397507,231.369975 C28.6711642,230.886076 28.0078648,230.394962 27.3325491,229.920203 C26.0343088,229.008684 24.7293393,228.106304 23.4253312,227.198633 C22.9115145,228.993772 23.236435,229.943772 24.8124921,231.181418 C26.144378,232.227139 27.5796041,233.161266 28.7975756,234.324354 C29.7747405,235.256557 30.4202558,236.529316 31.3527202,237.518759 C32.1429116,238.357646 33.1623739,238.975266 34.0222599,239.755468 C34.3942843,240.093139 34.61971,240.592911 34.790822,240.842557 C33.9525654,241.373114 33.4041418,241.764658 32.8129401,242.073468 C32.5697303,242.200456 32.0535104,242.277418 31.9674737,242.157646 C31.1359462,240.996962 29.6930297,241.279316 28.6466509,240.675646 C27.9540318,240.275924 27.3195715,239.776152 26.6586754,239.321114 C26.7105857,239.254253 26.7620155,239.186911 26.8134452,239.120051" id="Fill-65" fill="#000000"></path>
                    <path d="M31.093024,209.715747 C30.0269385,209.820127 29.1406167,209.683038 28.810409,208.403063 C28.7407145,208.132253 28.3648448,207.827291 28.0726086,207.747443 C27.1040953,207.482405 26.1096269,207.31357 25.0493092,207.091823 C25.0416187,207.134633 24.8753132,207.452582 24.9709629,207.606025 C26.0235902,209.284278 26.3014069,211.404582 27.9144741,212.762481 C28.5215373,213.273797 29.0156473,215.897722 28.4013743,216.391722 C27.4073866,217.190684 27.6582868,218.150785 27.6981809,219.078177 C27.7414395,220.085899 27.340576,220.388456 26.4042664,220.324481 C24.7936024,220.213848 23.4472969,218.860278 23.4434517,217.280633 C23.4410485,216.194987 23.5169914,215.102127 23.41269,214.027063 C23.3578957,213.467165 22.9901971,212.937089 22.7590037,212.395949 C22.693635,212.242025 22.5417491,212.09243 22.5475169,211.945241 C22.6277857,209.824937 21.2814802,208.459823 20.0822542,206.961949 C19.7900179,206.596861 20.089464,205.729595 20.1812684,205.102835 C20.2033784,204.948911 20.6321198,204.804127 20.613855,204.701671 C20.3538224,203.236987 21.3151259,202.105165 21.6458143,200.80643 C21.7217572,200.509165 21.8846982,200.06038 22.0880138,200.010354 C22.3970729,199.934354 22.8484049,200.050759 23.1146859,200.251823 C24.4581075,201.265797 25.7813418,202.309114 27.0675658,203.394759 C27.586189,203.832481 27.9908978,204.404886 28.4489589,204.914278 C28.969024,205.492456 29.3953621,206.226481 30.0322257,206.612734 C31.4501483,207.473266 31.6001116,207.697899 31.093024,209.715747" id="Fill-67" fill="#000000"></path>
                    <path d="M104.826442,35.5649215 C103.517627,35.3696304 101.741619,35.545681 100.485195,34.8203139 C98.2717939,33.5422633 95.8464253,33.7625671 93.5705393,33.1237823 C93.2691707,33.0391241 92.9860668,32.8231494 92.742857,32.6129468 C92.3328611,32.2594025 91.9834273,31.8351494 91.5695862,31.4868962 C90.8274599,30.8615797 89.9954517,30.3310228 89.3143682,29.6479848 C88.6097328,28.9418582 89.2624578,27.3463392 90.3645923,27.2482127 C91.7594436,27.1241114 93.1374721,27.2684152 94.3064171,28.3088456 C94.739965,28.6946177 95.5657246,28.6099595 96.0684864,28.9524405 C97.9026534,30.2025924 99.9233132,30.8057823 102.092975,31.1699089 C103.352763,31.3815544 104.533244,32.0390987 105.766116,32.4455544 C106.554865,32.7057823 106.791346,33.1843899 106.77212,33.9992253 C106.736552,35.5577063 106.708674,35.6313013 104.826442,35.5649215" id="Fill-69" fill="#000000"></path>
                    <path d="M40.4713564,121.773261 C40.1695071,122.415894 40.034444,123.3024 39.5297597,123.646324 C38.650167,124.245666 37.728277,123.778122 36.9337597,123.113843 C35.1130509,121.590476 33.2697515,120.094046 31.4168391,118.610603 C31.1971813,118.434552 30.8366925,118.446096 30.5785825,118.303716 C29.7509002,117.847716 28.9414827,117.359489 28.1238941,116.88521 C27.4019552,116.465767 26.679055,116.047286 25.9566354,115.629286 C25.7494745,115.509514 25.3832179,115.407539 25.369279,115.269489 C25.3447658,115.021286 25.4779063,114.711514 25.6389246,114.497944 C26.1700448,113.794223 26.8468024,113.420476 27.7888798,113.478678 C28.0993809,113.497919 28.4257434,113.094349 28.7612383,112.916375 C29.24189,112.660957 29.8518371,112.129438 30.2027128,112.261235 C30.9280163,112.532527 31.9296945,113.069337 32.0681222,113.670122 C32.2762444,114.570096 32.6026069,115.042932 33.3413686,115.55521 C34.554053,116.396982 35.5759185,117.508603 36.7501507,118.412906 C37.2803096,118.820805 37.9686029,119.043033 38.6107536,119.280653 C39.7321141,119.695286 40.8760652,120.054603 40.013776,121.798754 C40.1666232,121.790096 40.3189898,121.781919 40.4713564,121.773261" id="Fill-71" fill="#000000"></path>
                    <path d="M25.710734,134.462904 C25.6184489,135.234448 26.4341149,135.3826 27.2997686,135.675056 C28.8123796,136.185891 30.2461637,136.923765 31.7414713,137.492322 C33.0449988,137.988246 33.1353613,138.994524 33.0113532,140.133562 C32.9555976,140.647765 32.469178,141.161005 33.0200049,141.692043 C33.0401923,141.711284 32.7397849,142.234144 32.5494468,142.263005 C32.2341393,142.311106 31.7433939,142.263486 31.5756464,142.055689 C30.312013,140.483739 28.4110354,140.630929 26.7508644,140.341841 C24.7104978,139.986372 23.4391739,138.505334 22.043842,137.352347 C21.1820334,136.640448 20.2476464,135.288322 20.7158012,133.764473 C20.8436546,133.347435 20.9489173,132.644195 21.1796301,132.593208 C21.7703511,132.462853 22.503345,132.458524 23.0373491,132.70817 C23.9179031,133.120397 24.6864652,133.771689 25.710734,134.462904" id="Fill-73" fill="#000000"></path>
                    <path d="M41.4760627,92.3249443 C41.4760627,91.8477797 41.3674354,91.3388684 41.4957695,90.8992228 C41.9254721,89.426362 40.5368692,88.6798304 40.2210811,87.5114506 C40.1028407,87.0737291 39.8283886,86.6778557 39.6226697,86.2646658 C39.4640546,85.9467165 39.205464,85.6441595 39.1588407,85.3112987 C39.0410811,84.4666405 38.765187,83.5214506 39.0228163,82.7802101 C39.3179365,81.9317038 40.3547022,81.9071722 41.0453988,82.3665392 C42.2446248,83.1650203 43.3977084,83.8283367 43.9966004,85.511881 C44.4686004,86.8389949 44.1230118,88.4638557 44.836299,89.3046658 C46.0783031,90.7683873 45.4279813,92.2349949 45.5923642,93.681881 C45.6942623,94.5804127 44.362857,95.9782354 43.461635,96.1533241 C42.1595495,96.4063367 41.4741401,95.8613494 41.4337654,94.5395266 C41.4323234,94.4962354 41.4332847,94.4529443 41.4332847,94.4091722 L41.4332847,92.3249443 L41.4760627,92.3249443" id="Fill-75" fill="#000000"></path>
                    <path d="M36.529099,112.04401 C35.9580847,111.365301 35.6009605,110.881403 35.1842354,110.456187 C34.1282436,109.378238 32.944879,108.408035 32.0028016,107.241099 C31.1337833,106.164592 30.3705084,104.944744 29.8648627,103.667656 C29.705767,103.265048 30.4017507,102.292441 30.9396,101.90763 C31.5283984,101.486744 32.2363984,101.235656 33.1198363,101.949478 C34.6670542,103.200111 35.4447487,104.973124 36.6848301,106.411833 C36.8650745,106.621073 37.2241214,106.666289 37.439934,106.856289 C37.9801866,107.33201 38.6204147,107.766846 38.9785002,108.363301 C39.8081051,109.747175 39.4851071,110.673605 38.0484391,111.412922 C37.5240481,111.682289 36.9573597,111.868441 36.529099,112.04401" id="Fill-77" fill="#000000"></path>
                    <path d="M32.8738868,179.481263 C31.2968684,179.310504 29.7121597,179.083947 28.1202411,179.001213 C27.6790029,178.978605 27.0791495,179.266251 26.7873939,179.611137 C25.7059275,180.888225 21.5963552,181.622251 20.3673287,180.501491 C19.9212839,180.094554 19.875622,179.097415 19.9083063,178.381668 C19.9232065,178.052656 20.5211373,177.589922 20.9354591,177.472073 C21.9318501,177.187795 22.9719804,177.041567 24.0029784,176.898225 C24.6912717,176.802504 25.1675976,176.687061 25.3709132,175.830377 C25.5564448,175.048732 26.3557686,175.108858 26.7225059,175.691365 C27.4103185,176.783744 28.2605914,176.809238 29.3055283,176.418175 C29.5862289,176.313314 29.8909621,176.248377 30.1899275,176.217592 C32.5523308,175.975162 33.4708562,177.067542 32.8738868,179.481263" id="Fill-79" fill="#000000"></path>
                    <path d="M134.076166,13.6944304 C130.858203,13.2951899 127.642643,12.8757468 124.420354,12.5116203 C123.611417,12.4202278 123.292745,12.1051646 123.304761,11.2816709 C123.317258,10.451443 123.843091,10.4360506 124.423237,10.3629367 C127.428753,9.98534177 130.432826,9.59475949 133.436899,9.20562025 C134.014162,9.13106329 134.514521,9.0478481 134.713991,9.86460759 C134.793299,10.1907342 135.362871,10.374962 135.653185,10.678 C135.953111,10.9916203 136.35013,11.3422785 136.418382,11.7270886 C136.738496,13.5323291 136.520761,13.6824051 134.076166,13.6944304" id="Fill-81" fill="#000000"></path>
                    <path d="M24.2040831,185.610952 C24.2233092,185.572952 24.2487837,185.536876 24.2612807,185.496952 C24.4420057,184.92118 24.6208081,184.344927 24.8000912,183.769154 C25.3038143,184.070749 25.8008081,184.383408 26.3117409,184.671534 C27.7599446,185.488775 28.5756106,186.790395 28.4467959,188.381104 C28.3775821,189.241154 27.7974354,190.457154 27.1120261,190.765003 C26.3352929,191.114699 25.108189,191.465357 24.1786086,190.326319 C23.8508041,189.923711 22.8039446,190.068015 22.0824864,190.03723 C20.891912,189.986243 19.7047022,188.756775 19.8551462,187.604268 C19.8916758,187.327686 20.1267145,186.908243 20.3434884,186.855332 C21.0029426,186.694673 21.7364171,186.793281 22.3679935,186.577787 C22.9644823,186.374319 23.4691666,185.901003 24.013745,185.546496 C24.077191,185.568142 24.1406371,185.589306 24.2040831,185.610952" id="Fill-83" fill="#000000"></path>
                    <path d="M48.1435674,68.6577747 C48.8506061,67.7823316 49.3120318,67.1007367 49.9022721,66.5581544 C50.0479096,66.4239519 50.9207731,66.7212177 50.9299055,66.8554203 C50.9938322,67.8150405 51.7181743,67.8025342 52.3478281,68.0478506 C52.8515511,68.2441038 53.262989,68.670762 53.7277792,68.9762051 C54.5520969,69.5178253 55.3259462,70.2196228 56.2314941,70.531319 C57.2350949,70.8762051 57.7604473,71.2629392 57.4263943,72.3644582 C57.0933026,73.4606861 56.1497833,74.0932177 55.1336855,73.649243 C53.7066305,73.0248886 52.352154,72.2264076 50.9962354,71.4500532 C50.4771316,71.1527873 50.0056122,70.7463316 49.5749483,70.3249646 C49.1159259,69.8761797 48.7309238,69.3504329 48.1435674,68.6577747" id="Fill-85" fill="#000000"></path>
                    <path d="M120.561874,19.8330658 C119.122802,18.5771418 119.495788,16.9080278 119.872138,15.6367114 C120.118713,14.8031165 121.578452,14.329319 122.44747,13.7270911 C124.657026,16.1326354 123.726965,18.7796481 123.850012,21.2294456 C123.889906,22.0269646 123.532782,22.8369899 122.363356,22.0500532 C121.958167,21.7778 121.197295,22.0726608 120.737792,21.8369646 C119.347747,21.1241038 119.348709,20.8595468 120.561874,19.8330658" id="Fill-87" fill="#000000"></path>
                    <path d="M17.9781051,165.740367 C20.0391397,166.150671 21.7829442,166.459962 23.5075226,166.854873 C24.6168668,167.108848 25.4334941,167.102595 25.2941051,165.621076 C25.2162395,164.792291 25.789657,164.770646 26.3130868,164.903886 C27.1994086,165.129962 27.9977711,166.877481 27.549323,168.266165 C27.3416815,168.909278 26.2928994,169.701987 25.6305613,169.697177 C23.7382354,169.683709 21.8473515,169.302747 19.9583902,169.048772 C19.7118159,169.015582 19.3421947,168.944392 19.2633678,168.779405 C18.8351071,167.884241 18.4803862,166.953962 17.9781051,165.740367" id="Fill-89" fill="#000000"></path>
                    <path d="M23.9583739,143.831587 C23.8944473,145.033638 24.5894697,145.399208 25.4608912,145.536296 C26.5428383,145.707056 27.6430501,145.775841 28.7149035,145.991334 C29.4503006,146.139005 30.2823088,146.266954 30.3428709,147.345866 C30.3572904,147.602246 30.7379666,147.823511 30.9057141,148.089511 C31.0547161,148.325689 31.2642802,148.623916 31.2219829,148.852397 C31.1772823,149.093385 30.8586102,149.471942 30.671156,149.465208 C29.8266509,149.435866 28.9855104,149.295891 28.1443699,149.183815 C27.9920033,149.163132 27.7709035,148.996701 27.7098607,149.048651 C26.9754248,149.673967 26.5183251,149.020752 25.8819422,148.88222 C23.9848098,148.469511 23.6887283,146.282828 21.951653,145.840777 C21.7430501,145.787866 21.6632619,144.842195 21.7185369,144.330878 C21.7396855,144.134144 22.2890705,143.926828 22.6260073,143.850347 C22.992264,143.767613 23.3921662,143.831587 23.9583739,143.831587" id="Fill-91" fill="#000000"></path>
                    <path d="M51.8645809,76.9842481 C52.053477,78.2127544 52.1399943,79.1536152 50.5557662,79.1146532 C50.1313507,79.1040709 49.715587,79.8193367 49.2580065,79.8717671 C48.2274892,79.9891342 47.0989189,80.2070329 46.3875544,79.0179696 C46.2385523,78.7688051 45.8054851,78.6524 45.4791226,78.5533114 C44.2145279,78.1680203 43.1965075,76.8134886 43.2162143,75.4931089 C43.234479,74.2655646 44.0025605,73.7335646 44.7807356,74.5835139 C46.2121165,76.1463241 48.1251104,75.9303494 49.8376725,76.4522481 C50.4976073,76.6533114 51.172923,76.8043494 51.8645809,76.9842481" id="Fill-93" fill="#000000"></path>
                    <path d="M115.543197,21.4933772 C116.198806,23.0638835 115.839278,24.5367443 114.699172,25.3563899 C113.499946,26.2188456 111.908989,26.537757 110.484337,27.0817823 C110.377633,27.1221873 110.149804,27.1053519 110.1176,27.0428203 C109.693185,26.2169215 109.152451,25.4145924 108.925584,24.5328962 C108.679971,23.5771241 109.628297,23.384238 110.274292,23.0850481 C111.449486,22.5410228 112.614105,21.9618835 113.828712,21.522719 C114.32138,21.3447443 114.932288,21.4933772 115.543197,21.4933772" id="Fill-95" fill="#000000"></path>
                    <path d="M108.412536,27.4012709 C105.276764,27.5046886 102.141473,27.6138785 99.005701,27.708638 C98.018923,27.7384608 98.0626623,26.9967392 98.0809271,26.3468911 C98.0972692,25.7797772 97.9275992,24.9947646 98.8908253,25.051043 C101.803575,25.2218025 104.751892,24.593119 107.638687,25.5907392 C108.463485,25.8754987 108.689872,26.1703595 108.412536,27.4012709" id="Fill-97" fill="#000000"></path>
                    <path d="M31.0757206,199.739015 C27.7198102,199.70823 25.3160709,197.720205 22.9358835,195.723041 C22.3028652,195.192003 22.543191,194.679724 23.3237695,194.578711 C25.2934802,194.323775 27.123802,194.582078 28.5378794,196.190104 C28.7190851,196.395977 29.0012277,196.574914 29.2660668,196.635522 C30.7431096,196.973192 31.4395739,198.165142 31.0757206,199.739015" id="Fill-99" fill="#000000"></path>
                    <path d="M29.0969735,129.017792 C31.0666843,129.512273 33.0412016,129.987995 34.9998574,130.521919 C35.282,130.598881 35.6761344,130.940881 35.6968024,131.187159 C35.8169654,132.609995 36.1438086,134.128071 34.7407862,135.179084 C34.1832301,135.597084 33.6833523,135.689438 33.3368024,134.831792 C33.1507902,134.370501 32.7124358,134.007337 32.3726151,133.613387 C32.1308473,133.332957 31.6737475,133.093894 31.6434664,132.801919 C31.5684847,132.077033 31.217609,131.894729 30.5706517,131.768704 C30.2462118,131.705691 29.9722403,131.248729 29.7304725,130.927894 C29.3704644,130.45121 29.0599633,129.937008 28.7283136,129.439159 L29.0969735,129.017792 Z" id="Fill-101" fill="#000000"></path>
                    <path d="M30.0746672,214.84517 C31.5137385,215.289625 32.806211,215.647018 34.0616733,216.106385 C34.3736163,216.220385 34.6552782,216.628765 34.7864961,216.965954 C34.9215593,217.311322 34.8451356,217.736537 34.8792619,218.125676 C34.9874086,219.350334 34.5394411,220.11322 33.2306265,220.279651 C31.9054697,220.448486 31.2426509,219.848663 30.5461866,218.848157 C29.59738,217.485448 29.5368179,216.227119 30.0746672,214.84517" id="Fill-103" fill="#000000"></path>
                    <path d="M116.539684,15.1387671 C116.599765,15.9002101 116.613224,16.540438 116.715122,17.1667165 C116.769435,17.4995772 116.968906,17.8117544 117.117427,18.1263367 C117.247684,18.4014759 117.516849,18.6761342 117.497623,18.933957 C117.485607,19.0931722 117.028026,19.3692734 116.806926,19.3375266 C115.844662,19.1985139 114.883358,19.0089949 113.945607,18.7516532 C113.352963,18.5895519 112.639195,18.4144633 112.276303,17.9911722 C111.86823,17.5154506 111.687985,16.7641089 111.621655,16.1113747 C111.591374,15.8141089 112.055203,15.2022608 112.326771,15.1830203 C113.691822,15.0868177 115.067448,15.1387671 116.539684,15.1387671" id="Fill-105" fill="#000000"></path>
                    <path d="M24.0245597,154.211023 C22.7219935,154.018137 21.5780424,153.854111 20.4364945,153.673732 C20.2754762,153.648719 20.0284212,153.581377 19.9880464,153.471706 C19.6275576,152.490922 19.080576,151.502441 19.0551014,150.503858 C19.0397206,149.906441 19.820299,149.251782 20.3384415,148.71401 C20.4259202,148.623099 21.2805189,148.974719 21.2934965,149.157023 C21.3728041,150.249884 22.1903927,150.529352 22.9685678,150.667884 C23.8457572,150.823732 24.1187674,151.20277 24.0375373,152.044061 C23.9726493,152.718922 24.0245597,153.404846 24.0245597,154.211023" id="Fill-107" fill="#000000"></path>
                    <path d="M30.2233809,246.666177 C29.7201385,246.369873 29.2207413,246.066835 28.7107699,245.782557 C28.5718615,245.705114 28.3752749,245.608911 28.2488635,245.651241 C26.754998,246.155342 26.1883096,244.926835 25.4485866,244.113924 C24.9554379,243.572304 25.4620448,242.533797 26.3017434,242.477519 C27.4966436,242.398152 28.7126925,242.385165 29.6158371,243.489089 C29.9191283,243.858987 30.4718778,244.197139 30.9323422,244.228405 C31.8734582,244.292861 32.2291405,244.656987 32.1762688,245.588709 C32.1161874,246.64357 31.3317637,246.343418 30.7477719,246.434329 C30.6203992,246.454051 30.4872587,246.437215 30.357002,246.437215 C30.3127821,246.513696 30.2680815,246.589696 30.2233809,246.666177" id="Fill-109" fill="#000000"></path>
                    <path d="M31.9127756,160.591078 C30.58858,160.404927 29.3095658,160.1928 28.0223804,160.056673 C27.1865271,159.967686 26.9726371,159.415003 27.1293295,158.792572 C27.2163275,158.445281 27.6979405,158.167737 28.0468937,157.923382 C28.5020709,157.604471 28.969745,157.249484 29.4878876,157.085458 C30.9058102,156.636673 32.7784293,158.031129 31.9127756,160.591078" id="Fill-111" fill="#000000"></path>
                    <path d="M142.154624,8.57001013 C142.773703,8.9072 143.430754,9.19195949 143.994078,9.60514937 C144.247382,9.79082025 144.513663,10.3257063 144.41609,10.5363899 C144.263724,10.8663646 143.794608,11.2809975 143.481703,11.263681 C142.286803,11.1968203 141.09719,10.9919089 139.915268,10.7817063 C139.758095,10.7533266 139.507675,10.274719 139.556701,10.2150734 C139.949394,9.73646582 140.351699,9.22947848 140.859748,8.89613671 C141.131797,8.71768101 141.616775,8.86438987 142.006103,8.86438987 C142.05561,8.76626329 142.105117,8.66813671 142.154624,8.57001013" id="Fill-113" fill="#000000"></path>
                    <path d="M56.173912,64.1028253 C56.8785475,64.5703696 57.5480953,64.926319 58.1037287,65.4131038 C58.4868081,65.7488506 58.8102868,66.2313063 58.9732277,66.712319 C59.0799324,67.0264203 58.8314354,67.7849772 58.7785637,67.7816101 C58.1094965,67.737838 57.364967,67.739762 56.807411,67.4285468 C56.2897491,67.1399392 55.9499283,66.5069266 55.5774232,65.992243 C55.3197939,65.6358127 54.9338305,65.1889519 54.9905475,64.8459899 C55.0352481,64.5751797 55.6658631,64.4005722 56.173912,64.1028253" id="Fill-115" fill="#000000"></path>
                    <path d="M29.8376098,110.462537 C29.3329255,110.908916 29.0709703,111.336056 28.748453,111.388486 C27.877512,111.528942 27.9063511,110.771347 27.9919071,110.272056 C28.050066,109.932942 28.4768847,109.657322 28.7383593,109.352841 C29.0363633,109.653473 29.3338868,109.954106 29.8376098,110.462537" id="Fill-117" fill="#000000"></path>
                    <path d="M36.1134314,93.9159418 C35.5717369,94.2666 35.2131707,94.6706506 34.9757287,94.609081 C34.6791666,94.532119 34.4820994,94.0717899 34.2417735,93.7764481 C34.5368937,93.5633595 34.8142297,93.2242456 35.1329018,93.1799924 C35.3506371,93.1501696 35.6255699,93.5306506 36.1134314,93.9159418" id="Fill-119" fill="#000000"></path>
                    <path d="M24.0282607,163.206922 C24.4430631,163.762972 24.6766599,164.07563 24.9102566,164.38877 C24.6444562,164.544137 24.3637556,164.840441 24.1167006,164.814466 C23.8821426,164.790415 23.5543381,164.454668 23.5057923,164.208871 C23.4630143,163.991934 23.749002,163.70958 24.0282607,163.206922" id="Fill-121" fill="#000000"></path>
                    <path d="M108.095642,135.912339 C107.292473,136.033073 106.560921,135.9412 106.136025,136.25963 C105.634225,136.635782 105.352563,137.345757 105.069459,137.954719 C104.968042,138.17358 105.04062,138.684896 105.201638,138.780618 C106.078347,139.302997 106.975243,139.842694 107.938469,140.136111 C108.216767,140.221251 108.710396,139.472314 109.151154,139.174086 C110.245117,138.433327 109.785133,137.348643 109.624115,136.457808 C109.571724,136.168238 108.534958,136.057124 108.095642,135.912339 M115.111235,136.844061 C114.704604,138.38763 114.298453,139.9312 113.891341,141.473808 C113.880767,141.514213 113.864905,141.566162 113.834143,141.585884 C112.041312,142.745605 110.339805,144.101099 108.424889,145.001554 C106.608987,145.855352 104.758477,145.253124 103.197801,143.994795 C102.951227,143.795656 102.792131,143.473858 102.632074,143.186213 C102.551805,143.042871 102.603235,142.723959 102.523447,142.697504 C101.016604,142.191478 100.613337,140.768162 100.284571,139.552643 C99.9457116,138.301529 99.7981515,136.769023 100.225932,135.601124 C100.702257,134.300947 101.890429,133.246567 102.839235,132.145529 C103.0935,131.850187 103.58809,131.715985 103.998567,131.608719 C106.307618,131.003605 108.603211,131.093073 110.952156,131.536567 C112.638763,131.854516 113.415496,133.281681 114.612319,134.156643 C115.095854,134.510187 114.850241,135.863276 114.936278,136.761327 C114.994437,136.789225 115.052596,136.816643 115.111235,136.844061" id="Fill-123" fill="#000000"></path>
                </g>
            </g>
        </g>
    </g>
</svg>